<svg width="100" height="30" fill="none" xmlns="http://www.w3.org/2000/svg"><path d="M31.422 6.08a1.535 1.535 0 011.13.48 1.6 1.6 0 01.47 1.161 1.573 1.573 0 01-.466 1.15 1.513 1.513 0 01-1.115.475 1.52 1.52 0 01-1.14-.487 1.61 1.61 0 01-.472-1.174 1.568 1.568 0 01.465-1.137 1.545 1.545 0 011.129-.469l-.001.002zm-1.256 4.132h2.51v10.037h-2.51V10.212zm7.25 0v1.11c.419-.43.916-.777 1.465-1.021a4.207 4.207 0 011.684-.343 4.329 4.329 0 013.315 1.486 5.416 5.416 0 011.362 3.81 5.277 5.277 0 01-1.41 3.75 4.443 4.443 0 01-1.508 1.116c-.576.26-1.2.394-1.831.392-.55.004-1.094-.1-1.603-.309a4.93 4.93 0 01-1.475-1.01v4.73h-2.481V10.211h2.481zm2.627 2.068a2.59 2.59 0 00-1.96.813 2.922 2.922 0 00-.777 2.118 3.023 3.023 0 00.778 2.163 2.588 2.588 0 001.96.827 2.525 2.525 0 001.927-.84 3.01 3.01 0 00.78-2.14c.03-.78-.246-1.54-.768-2.117a2.544 2.544 0 00-1.94-.827v.003zm8.247-6.2a1.535 1.535 0 011.132.48 1.6 1.6 0 01.47 1.162 1.573 1.573 0 01-.466 1.15 1.514 1.514 0 01-1.115.475 1.52 1.52 0 01-1.14-.487 1.609 1.609 0 01-.472-1.174 1.567 1.567 0 01.465-1.137 1.545 1.545 0 011.129-.469h-.003zm-1.255 4.132h2.51v10.037h-2.51V10.212zm4.768 0h2.49v1.026a5.92 5.92 0 011.545-1.001 3.686 3.686 0 011.412-.284A3.405 3.405 0 0159.768 11a3.572 3.572 0 01.87 2.62v6.63h-2.472v-4.398c.03-.8-.024-1.6-.164-2.388a1.644 1.644 0 00-.56-.9 1.556 1.556 0 00-.98-.309 1.827 1.827 0 00-1.306.513c-.387.385-.65.877-.756 1.414a11.69 11.69 0 00-.11 2.04v4.03H51.8v-10.04h.003zm10.06 0h.89c.007-1.314.026-2.092.064-2.335a1.932 1.932 0 01.69-1.314 2.566 2.566 0 011.672-.486c.601.017 1.195.14 1.755.363v1.92a3.212 3.212 0 00-.888-.157.936.936 0 00-.64.182.813.813 0 00-.145.574l-.01 1.253h1.585v2.14H65.25v7.897h-2.497v-7.896h-.888v-2.14l-.001-.001zm11.115-.259a5.272 5.272 0 012.652.712 5.193 5.193 0 011.929 1.918c.462.801.705 1.712.702 2.638a5.319 5.319 0 01-.7 2.657 5.09 5.09 0 01-1.91 1.934 5.256 5.256 0 01-2.664.695 4.935 4.935 0 01-3.656-1.536 5.13 5.13 0 01-1.515-3.73c-.016-.74.13-1.474.426-2.152a5.077 5.077 0 011.286-1.769 4.978 4.978 0 013.45-1.366zm.039 2.372a2.552 2.552 0 00-1.938.818 2.904 2.904 0 00-.772 2.088 2.963 2.963 0 00.764 2.124 2.549 2.549 0 001.934.812 2.566 2.566 0 001.95-.821 2.934 2.934 0 00.777-2.113 2.932 2.932 0 00-.762-2.097 2.59 2.59 0 00-1.953-.811zm8.65 5.295a1.38 1.38 0 011.013.419 1.449 1.449 0 01.389 1.304 1.45 1.45 0 01-.859 1.051 1.425 1.425 0 01-1.812-.653 1.455 1.455 0 01-.06-1.233 1.44 1.44 0 01.778-.779c.174-.072.36-.108.549-.107l.001-.002zm4.86-11.54a1.535 1.535 0 011.132.48 1.6 1.6 0 01.469 1.162 1.574 1.574 0 01-.466 1.15 1.515 1.515 0 01-1.115.475 1.52 1.52 0 01-1.14-.487 1.61 1.61 0 01-.472-1.174A1.612 1.612 0 0185.4 6.55a1.588 1.588 0 011.128-.47zm-1.255 4.132h2.51v10.037h-2.51V10.212zm9.446-.259a5.272 5.272 0 012.652.712 5.192 5.192 0 011.929 1.918 5.26 5.26 0 01.702 2.638 5.322 5.322 0 01-.7 2.657 5.09 5.09 0 01-1.91 1.934 5.257 5.257 0 01-2.665.695 4.934 4.934 0 01-1.985-.385 4.965 4.965 0 01-1.668-1.151 5.132 5.132 0 01-1.515-3.73 5.093 5.093 0 01.424-2.151 5.077 5.077 0 011.284-1.77 4.978 4.978 0 013.45-1.367h.002zm.037 2.372a2.55 2.55 0 00-1.937.818 2.906 2.906 0 00-.773 2.088 2.964 2.964 0 00.766 2.124 2.549 2.549 0 001.934.812 2.565 2.565 0 001.949-.821 2.934 2.934 0 00.778-2.113 2.934 2.934 0 00-.762-2.097 2.59 2.59 0 00-1.956-.809l.001-.002z" fill="#1E283A"/><path fill-rule="evenodd" clip-rule="evenodd" d="M13.206 22.609l1.952 2.273 2.255-1.966 2.209-1.926a12.028 12.028 0 004.056-8.184 12.054 12.054 0 00-2.85-8.687A11.871 11.871 0 0012.707.032a11.845 11.845 0 00-8.62 2.871 12.029 12.029 0 00-4.056 8.185 12.055 12.055 0 002.85 8.686l7.789 9.07c.696.81 1.428 1.688 2.559.752l.034-.029.032-.029c1.082-.995.325-1.851-.371-2.662l-.486-.565-7.302-8.507a9.033 9.033 0 01-2.13-6.503 9.013 9.013 0 013.035-6.127 8.875 8.875 0 016.453-2.146 8.895 8.895 0 016.08 3.058 9.033 9.033 0 012.13 6.503 9.013 9.013 0 01-3.034 6.127l-2.208 1.926-1.952-2.273-1.952-2.273-1.91-2.225a2.99 2.99 0 01.297-4.15 2.938 2.938 0 014.119.299 2.996 2.996 0 01.1 3.726 1.56 1.56 0 00.096 1.893c.98 1.141 2.061.356 2.637-.61a6.027 6.027 0 00-.579-6.975 5.906 5.906 0 00-8.327-.606 6.011 6.011 0 00-.601 8.39l1.911 2.226 1.953 2.27 1.952 2.273v.002z" fill="#007EBA"/></svg>