<svg xmlns="http://www.w3.org/2000/svg" viewBox="0 0 150.079 129.706"><defs><style>.cls-1,.cls-10,.cls-13,.cls-15,.cls-16,.cls-17,.cls-18,.cls-19,.cls-2,.cls-3,.cls-4,.cls-5,.cls-6,.cls-7,.cls-8,.cls-9{fill:none}.cls-1,.cls-2,.cls-9{stroke:#0072cb}.cls-1,.cls-2,.cls-3,.cls-4,.cls-7,.cls-8{stroke-linecap:round;stroke-linejoin:round}.cls-10,.cls-2,.cls-3,.cls-5,.cls-6,.cls-9{stroke-width:2px}.cls-10,.cls-3,.cls-4{stroke:#b5c3d7}.cls-5{stroke:#20d3aa}.cls-6{stroke:#c6cfe0}.cls-7{stroke:#19cc9d}.cls-8{stroke:#ebeff7}.cls-11{fill:#b5c3d7}.cls-12{fill:#0072cb}.cls-13{stroke:#fff}.cls-14{fill:#0585dd}.cls-15,.cls-16,.cls-17,.cls-18,.cls-19{stroke:#e2e9f2;stroke-miterlimit:10}.cls-16{stroke-dasharray:.98 .98}.cls-17{stroke-dasharray:1.014 1.014}.cls-18{stroke-dasharray:.991 .991}.cls-19{stroke-dasharray:.997 .997}.cls-20{fill:#fff}.cls-21{fill:#20d3aa}</style></defs><g id="Geolocation_final" transform="translate(.188 -18.91)"><path id="Line_161" data-name="Line 161" class="cls-1" transform="translate(12.375 91.373)" d="M0 0h5.871"/><g id="Group_826" data-name="Group 826"><path id="Line_167" data-name="Line 167" class="cls-2" transform="translate(.812 129.16)" d="M5.503 0H0"/><path id="Line_168" data-name="Line 168" class="cls-2" transform="translate(3.563 126.592)" d="M0 5.136V0"/></g><g id="Group_827" data-name="Group 827" transform="translate(-2 15)"><path id="Line_169" data-name="Line 169" class="cls-3" transform="translate(117.188 7.477)" d="M5.501 0H0"/><path id="Line_170" data-name="Line 170" class="cls-3" transform="translate(119.938 4.91)" d="M0 5.135V0"/></g><path id="Path_2450" data-name="Path 2450" class="cls-4" d="M38.039 126.95l16.195-6.586 27.452 15.913 24.589-14.542 14.366 4.946"/><path id="Line_171" data-name="Line 171" class="cls-4" transform="translate(124.756 128.327)" d="M0 0l5.764 1.986"/><path id="Path_2451" data-name="Path 2451" class="cls-5" d="M136.317 92.435s2.2 1.1 3.57 0c0 0 1.463-2.686 4.024.49a1.968 1.968 0 0 0 2.1-.774s1.739-1.594 3.116.031"/><path id="Path_2452" data-name="Path 2452" class="cls-6" d="M28.018 57.106s2.193 1.1 3.565 0c0 0 1.467-2.683 4.026.489a1.972 1.972 0 0 0 2.1-.774s1.74-1.594 3.112.032"/><path id="Line_172" data-name="Line 172" class="cls-7" transform="translate(120.689 35.626)" d="M0 0h8.232"/><path id="Line_173" data-name="Line 173" class="cls-7" transform="translate(128.921 39.467)" d="M0 0h12.078"/><path id="Line_174" data-name="Line 174" class="cls-8" transform="translate(34.329 145.694)" d="M8.23 0H0"/><path id="Line_175" data-name="Line 175" class="cls-8" transform="translate(22.254 141.853)" d="M12.075 0H0"/><path id="Path_2453" data-name="Path 2453" class="cls-9" d="M84.954 145.694a1.921 1.921 0 1 1-1.92-1.919 1.921 1.921 0 0 1 1.92 1.919z"/><circle id="Ellipse_184" data-name="Ellipse 184" class="cls-10" cx="1.921" cy="1.921" r="1.921" transform="translate(13.387 67.65)"/><path id="Path_2454" data-name="Path 2454" class="cls-11" d="M132 78.909a1.08 1.08 0 1 1-1.081-1.082A1.08 1.08 0 0 1 132 78.909z"/><path id="Path_2455" data-name="Path 2455" class="cls-12" d="M41.333 67.121l-26.925 61.637 38.668-13.57 28.575 15.041 24-14.628 38.515 13.559-27.42-62.039z"/><path id="Path_2460" data-name="Path 2460" class="cls-14" d="M13.816 129.495l39.26-14.307L71.3 67.121H41.333z"/><path id="Path_2461" data-name="Path 2461" class="cls-14" d="M105.651 115.6l38.515 13.559-27.42-62.039H87.859z"/><g id="Group_829" data-name="Group 829"><g id="Group_828" data-name="Group 828"><path id="Line_176" data-name="Line 176" class="cls-15" transform="translate(31.792 98.025)" d="M0 .216L.469 0"/><path id="Line_177" data-name="Line 177" class="cls-16" transform="translate(33.178 83.257)" d="M0 14.339L30.733 0"/><path id="Path_2462" data-name="Path 2462" class="cls-15" d="M64.37 83.043l.468-.219.309.415"/><path id="Line_178" data-name="Line 178" class="cls-17" transform="translate(65.773 84.079)" d="M0 0l14.716 19.739"/><path id="Path_2463" data-name="Path 2463" class="cls-15" d="M80.8 104.239l.308.415.323-.4"/><path id="Line_179" data-name="Line 179" class="cls-18" transform="translate(82.073 87.848)" d="M0 15.601L12.454 0"/><path id="Path_2464" data-name="Path 2464" class="cls-15" d="M94.848 87.447l.323-.4.485.176"/><path id="Line_180" data-name="Line 180" class="cls-19" transform="translate(96.625 87.568)" d="M0 0l28.594 10.324"/><path id="Line_181" data-name="Line 181" class="cls-15" transform="translate(125.704 98.068)" d="M0 0l.485.173"/></g></g><path id="Path_2456" data-name="Path 2456" class="cls-20" d="M76.789 68.8c-2.224 1.88-1.865 5.755.03 7.621a5.1 5.1 0 0 0 6.192.653c3.244-1.966 3.309-5.654 1.008-8.379" transform="translate(0 10)"/><path id="Path_2457" data-name="Path 2457" class="cls-21" d="M80.107 73.263c-3.878-4.055-7.719-8.147-11.654-12.144-3.762-3.815-7.785-7.178-10.175-12.107a24.3 24.3 0 0 1-2.311-14.727c2.124-10.8 13.442-19.664 24.366-19.268 10.038.365 20.219 6.584 23.421 16.543a21.363 21.363 0 0 1-2.762 18.756c-2.8 4.156-6.633 7.661-10.044 11.313Q86.575 66.315 82.209 71c-.697.754-1.403 1.508-2.102 2.263z" transform="translate(0 10)"/><circle id="Ellipse_185" data-name="Ellipse 185" class="cls-20" cx="11.42" cy="11.42" r="11.42" transform="translate(68.163 39.02)"/></g></svg>