<svg xmlns="http://www.w3.org/2000/svg" viewBox="0 0 146.81 123.944"><defs><style>.cls-1,.cls-10,.cls-12,.cls-2,.cls-3,.cls-4,.cls-5,.cls-6,.cls-7{fill:none}.cls-1,.cls-4{stroke:#0072cb}.cls-1,.cls-2{stroke-linecap:round;stroke-linejoin:round}.cls-1,.cls-10,.cls-2,.cls-3,.cls-4,.cls-5,.cls-6{stroke-width:2px}.cls-12,.cls-2,.cls-3{stroke:#b5c3d7}.cls-5,.cls-7{stroke:#20d3aa}.cls-6{stroke:#00072c;opacity:.2}.cls-8{fill:#0072cb}.cls-9{fill:#0585dd}.cls-10{stroke:#fff}.cls-11{fill:#fff}.cls-12{stroke-width:3px}.cls-13{fill:#24d7ae}</style></defs><g id="Carrier_final" transform="translate(-1.595 -15.737)"><g id="Group_807" data-name="Group 807"><path id="Line_128" data-name="Line 128" class="cls-1" transform="translate(9.069 101.105)" d="M5.557 0H0"/><path id="Line_129" data-name="Line 129" class="cls-1" transform="translate(11.847 98.514)" d="M0 5.185V0"/></g><g id="Group_808" data-name="Group 808"><path id="Line_130" data-name="Line 130" class="cls-2" transform="translate(121.023 19.33)" d="M5.556 0H0"/><path id="Line_131" data-name="Line 131" class="cls-2" transform="translate(123.801 16.737)" d="M0 5.185V0"/></g><circle id="Ellipse_178" data-name="Ellipse 178" class="cls-3" cx="2.404" cy="2.404" r="2.404" transform="translate(22.126 35.886)"/><path id="Path_2437" data-name="Path 2437" class="cls-4" d="M123.427 136.279a2.4 2.4 0 1 1-2.4-2.4 2.4 2.4 0 0 1 2.4 2.4z"/><path id="Path_2438" data-name="Path 2438" class="cls-5" d="M116.038 90.4s1.962.981 3.19 0c0 0 1.309-2.4 3.6.436a1.76 1.76 0 0 0 1.882-.693s1.556-1.424 2.78.031"/><path id="Path_2439" data-name="Path 2439" class="cls-6" d="M8.716 56.859s1.962.982 3.189 0c0 0 1.308-2.4 3.6.437a1.759 1.759 0 0 0 1.879-.693s1.554-1.423 2.782.031"/><path id="Line_132" data-name="Line 132" class="cls-7" transform="translate(109.49 32.157)" d="M0 0h5.901"/><path id="Line_133" data-name="Line 133" class="cls-7" transform="translate(115.391 34.911)" d="M0 0h8.65"/><path id="Line_136" data-name="Line 136" class="cls-5" transform="translate(1.595 126.824)" d="M22.464 0H0"/><path id="Line_137" data-name="Line 137" class="cls-4" transform="translate(116.467 121.658)" d="M0 0h19.629"/><path id="Line_139" data-name="Line 139" class="cls-3" transform="translate(125.939 127.646)" d="M0 0h22.465"/><path id="Line_140" data-name="Line 140" class="cls-3" transform="translate(24.059 133.564)" d="M0 0h6.74"/><path id="Path_2440" data-name="Path 2440" class="cls-8" d="M104.894 126.028a3.39 3.39 0 0 1-3.623 3.1H48.029a3.39 3.39 0 0 1-3.622-3.1V20.482a3.39 3.39 0 0 1 3.622-3.095h53.242a3.39 3.39 0 0 1 3.623 3.095z" transform="translate(.189)"/><path id="Path_2441" data-name="Path 2441" class="cls-9" d="M44.85 127.512l6.26-15.412H49V30.969h18.65l8.74-13.582H49s-4.589.983-4.589 3.095z"/><path id="Line_143" data-name="Line 143" class="cls-10" transform="translate(72.478 24.813)" d="M0 0h10.139"/><path id="Line_144" data-name="Line 144" class="cls-10" transform="translate(65.296 24.813)" d="M4.707 0H0"/><path id="Path_2442" data-name="Path 2442" class="cls-11" d="M78.813 120.078a4.165 4.165 0 1 1-4.162-4.165 4.165 4.165 0 0 1 4.162 4.165z"/><path id="Rectangle_483" data-name="Rectangle 483" class="cls-11" transform="translate(48.996 30.969)" d="M0 0h50.709v81.129H0z"/><path id="Line_230" data-name="Line 230" class="cls-12" transform="translate(69.096 92.237)" d="M0 0h11"/><path id="Path_2443" data-name="Path 2443" class="cls-13" d="M74.321 92.22S63.795 76.678 61.587 71.945c0 0-5.681-12.544 8.283-17.987 0 0 7.26-3.391 14.28 3.079a12.8 12.8 0 0 1 4.1 9.527 14.267 14.267 0 0 1-1.805 6.844c-1.394 2.426-2.979 4.714-4.5 7.06z" transform="translate(.151)"/><ellipse id="Ellipse_180" data-name="Ellipse 180" class="cls-11" cx="4.31" cy="4.323" rx="4.31" ry="4.323" transform="translate(70.596 63.997)"/></g></svg>