<svg xmlns="http://www.w3.org/2000/svg" viewBox="0 0 143.642 124.714"><defs><style>.cls-1,.cls-3,.cls-6,.cls-7,.cls-8,.cls-9{fill:none;stroke-width:2px}.cls-1,.cls-9{stroke:#0072cb}.cls-1,.cls-3{stroke-linecap:round;stroke-linejoin:round}.cls-2{fill:#0072cb}.cls-3,.cls-8{stroke:#b5c3d7}.cls-4{fill:#b5c3d7}.cls-5{fill:#fff}.cls-6{stroke:#20d3aa}.cls-7{stroke:#00072c;opacity:.2}.cls-10{fill:#20d3aa}</style></defs><g id="ISP_final" transform="translate(-1.443 -11.224)"><g id="Group_832" data-name="Group 832"><path id="Line_204" data-name="Line 204" class="cls-1" transform="translate(3.229 132.454)" d="M5.326 0H0"/><path id="Line_205" data-name="Line 205" class="cls-1" transform="translate(5.892 129.971)" d="M0 4.967V0"/></g><path id="Path_2508" data-name="Path 2508" class="cls-2" d="M24599.875 1874.883a35.243 35.243 0 0 0-31.477-16.862c-22.047.659-31.312 19.257-31.7 22.678-8.086-1.8-27.328 1.993-27.828 22.347-.883 23.671 26.172 24.391 30.852 24.258 2.977-.07 81.047 0 82.555 0 6.461.265 23.6-3.688 23.891-19.807-.2-16.25-12.047-22.5-23.4-21.6a26.655 26.655 0 0 0-10.406-8.332 42.8 42.8 0 0 0-12.487-2.682z" transform="translate(-24505.303 -1818.302)"/><g id="Group_833" data-name="Group 833"><path id="Line_206" data-name="Line 206" class="cls-3" transform="translate(115.841 14.708)" d="M5.325 0H0"/><path id="Line_207" data-name="Line 207" class="cls-3" transform="translate(118.503 12.224)" d="M0 4.968V0"/></g><path id="Path_2483" data-name="Path 2483" class="cls-4" d="M45.651 82l3.885-3.885-2.489-7.715 2.591-2.1 7.993 4.962 4.86-1.3 3.237-7.125h2.916l3.236 6.8 5.183 1.779 6.774-3.8 2.306 1.3-.661 8.171L89.369 82l6.152-1.295 1.944 4.213-3.889 4.855.974 5.827 6.8 2.916v3.237l-6.8 2.913-.65 4.534 2.916 5.828-1.616 2.596h-6.155l-3.887 3.562.4 7.464-1.982 1.061-7.165-3.668-3.459.544-4.637 6.149H65.08l-3.561-4.752-3.563-1.941-5.829 3.885-3.886-1.944.972-6.151-3.562-4.209-7.774.647-1.617-2.591 4.857-6.476-1.3-3.888-5.83-2.266v-4.264l4.857-3.509 2.273-5.177-4.21-5.18 1.619-3.889z"/><circle id="Ellipse_187" data-name="Ellipse 187" class="cls-5" cx="11.977" cy="11.977" r="11.977" transform="translate(55.694 88.052)"/><path id="Path_2486" data-name="Path 2486" class="cls-6" d="M128.969 58.978s2.631 1.316 4.276 0c0 0 1.755-3.218 4.825.584a2.357 2.357 0 0 0 2.521-.928s2.085-1.91 3.729.041"/><path id="Path_2487" data-name="Path 2487" class="cls-7" d="M1.891 28.9s2.632 1.316 4.277 0c0 0 1.755-3.218 4.826.584a2.359 2.359 0 0 0 2.521-.927s2.085-1.91 3.73.04"/><circle id="Ellipse_188" data-name="Ellipse 188" class="cls-8" cx="2.303" cy="2.303" r="2.303" transform="translate(38.741 13.046)"/><circle id="Ellipse_189" data-name="Ellipse 189" class="cls-9" cx="2.303" cy="2.303" r="2.303" transform="translate(126.665 109.704)"/><path id="Path_2488" data-name="Path 2488" class="cls-10" d="M17.284 58.371l1.5-1.5-.962-2.971 1-.81L21.9 55l1.872-.5 1.247-2.744h1.124l1.246 2.619 2 .686 2.605-1.461.888.5-.255 3.147 1.5 1.124 2.371-.5.749 1.621-1.5 1.873.375 2.245 2.62 1.122v1.249L36.121 67.1l-.249 1.747 1.122 2.253-.623 1H34l-1.5 1.371.156 2.875-.764.41-2.761-1.413-1.332.208-1.786 2.371h-1.244L23.4 76.085l-1.371-.748-2.246 1.5-1.5-.749.375-2.37-1.372-1.621-2.994.249-.624-1 1.871-2.5-.5-1.5-2.246-.875v-1.634l1.872-1.352.873-2-1.622-2L14.539 58z"/><circle id="Ellipse_190" data-name="Ellipse 190" class="cls-5" cx="4.614" cy="4.614" r="4.614" transform="translate(21.153 60.701)"/></g></svg>