<svg xmlns="http://www.w3.org/2000/svg" viewBox="0 0 187.199 132.205"><defs><style>.cls-1,.cls-11,.cls-2,.cls-3,.cls-4,.cls-5,.cls-6,.cls-7{fill:none}.cls-1,.cls-4{stroke:#0072cb}.cls-1,.cls-2{stroke-linecap:round;stroke-linejoin:round}.cls-1,.cls-11,.cls-2,.cls-3,.cls-4,.cls-5,.cls-6{stroke-width:2px}.cls-11,.cls-2,.cls-3{stroke:#b5c3d7}.cls-5,.cls-7{stroke:#20d3aa}.cls-6{stroke:#00072c;opacity:.2}.cls-8{fill:#e1ebf5}.cls-10,.cls-8,.cls-9{fill-rule:evenodd}.cls-9{fill:#d5e2f0}.cls-10{fill:#b5c3d7}.cls-11{stroke-miterlimit:10}.cls-12{fill:#fff}.cls-13{fill:#0072cb}.cls-14{filter:url(#Path_2506)}.cls-15{filter:url(#Path_2492)}</style><filter id="Path_2492" x="26.902" y="14.434" width="139.102" height="98.791" filterUnits="userSpaceOnUse"><feOffset/><feGaussianBlur stdDeviation="2" result="blur"/><feFlood flood-color="#00467c" flood-opacity=".149"/><feComposite operator="in" in2="blur"/><feComposite in="SourceGraphic"/></filter><filter id="Path_2506" x="80" y="48.829" width="107.199" height="83.376" filterUnits="userSpaceOnUse"><feOffset dy="3"/><feGaussianBlur stdDeviation="3" result="blur-2"/><feFlood flood-color="#00467c" flood-opacity=".149"/><feComposite operator="in" in2="blur-2"/><feComposite in="SourceGraphic"/></filter></defs><g id="Hosting_data_final" data-name="Hosting data_final" transform="translate(-9.859 -29.404)"><g id="Group_834" data-name="Group 834" transform="translate(26.51 144.357)"><path id="Line_208" data-name="Line 208" class="cls-1" transform="translate(0 3.666)" d="M7.861 0H0"/><path id="Line_209" data-name="Line 209" class="cls-1" transform="translate(3.929)" d="M0 7.337V0"/></g><g id="Group_835" data-name="Group 835" transform="translate(160.493 37.106)"><path id="Line_210" data-name="Line 210" class="cls-2" transform="translate(0 2.467)" d="M5.285 0H0"/><path id="Line_211" data-name="Line 211" class="cls-2" transform="translate(2.639)" d="M0 4.933V0"/></g><circle id="Ellipse_191" data-name="Ellipse 191" class="cls-3" cx="2.287" cy="2.287" r="2.287" transform="translate(89.411 30.404)"/><path id="Path_2489" data-name="Path 2489" class="cls-4" d="M103.691 128.507a2.29 2.29 0 1 1-2.29-2.291 2.283 2.283 0 0 1 2.29 2.291z" transform="translate(23.11 22.768)"/><path id="Path_2490" data-name="Path 2490" class="cls-5" d="M129.327 134.293s2.11 1.057 3.432 0c0 0 1.407-2.583 3.871.47a1.9 1.9 0 0 0 2.026-.745s1.672-1.532 2.993.031" transform="translate(30.29 24.444)"/><path id="Path_2491" data-name="Path 2491" class="cls-6" d="M19.235 59.96s2.111 1.057 3.432 0c0 0 1.41-2.582 3.873.47a1.891 1.891 0 0 0 2.022-.746s1.673-1.532 2.994.033" transform="translate(4.129 6.781)"/><path id="Line_212" data-name="Line 212" class="cls-4" transform="translate(27.396 108.626)" d="M8.514 0H0"/><path id="Line_214" data-name="Line 214" class="cls-5" transform="translate(9.859 117.863)" d="M19.645 0H0"/><path id="Line_218" data-name="Line 218" class="cls-7" transform="translate(42.836 39.572)" d="M13.137 0H0"/><path id="Line_219" data-name="Line 219" class="cls-7" transform="translate(34.994 39.572)" d="M0 0h4.504"/><g class="cls-15" transform="translate(9.86 29.4)"><path id="Path_2492-2" data-name="Path 2492" class="cls-8" d="M162.01 130.6a2.3 2.3 0 0 1-2.3 2.3H37.2a2.3 2.3 0 0 1-2.295-2.3V48.4a2.3 2.3 0 0 1 2.295-2.293h122.514a2.3 2.3 0 0 1 2.3 2.295z" transform="translate(-2.01 -25.67)"/></g><path id="Path_2493" data-name="Path 2493" class="cls-9" d="M37.533 45.771h121.8c1.4 0 2.562 1.775 2.562 3.929v12.047c0 .17-.1.322-.224.322H34.985V49.7c0-2.154 1.145-3.929 2.548-3.929z" transform="translate(7.872 3.652)"/><path id="Path_2494" data-name="Path 2494" class="cls-10" d="M42.978 54.153a2.692 2.692 0 1 0-2.691-2.693 2.7 2.7 0 0 0 2.691 2.693z" transform="translate(9.132 6.364)"/><path id="Path_2495" data-name="Path 2495" class="cls-10" d="M47.855 54.153a2.692 2.692 0 1 0-2.693-2.693 2.713 2.713 0 0 0 2.693 2.693z" transform="translate(11.792 6.364)"/><path id="Path_2496" data-name="Path 2496" class="cls-10" d="M52.73 54.153a2.692 2.692 0 1 0-2.691-2.693 2.7 2.7 0 0 0 2.691 2.693z" transform="translate(14.454 6.364)"/><path id="Path_2499" data-name="Path 2499" class="cls-10" d="M56.829 83.268l-3.307-10.922h1.939l1.74 6.309.626 2.336c.03-.116.2-.849.573-2.253l1.71-6.395h1.912l1.624 6.338.543 2.072.629-2.1 1.882-6.31h1.8l-3.42 10.922h-1.915l-1.743-6.522-.428-1.885-2.2 8.411zm15.2 0l-3.3-10.922h1.936l1.74 6.309.6 2.336c.03-.116.232-.849.57-2.253l1.74-6.395h1.882l1.657 6.338.54 2.072.626-2.1 1.882-6.309h1.8l-3.434 10.921h-1.912l-1.74-6.522-.428-1.885-2.224 8.411zm15.176 0l-3.28-10.922h1.909l1.74 6.309.632 2.336c.024-.116.22-.849.564-2.253l1.737-6.395h1.885l1.654 6.338.514 2.072.626-2.1 1.914-6.31h1.8l-3.42 10.922h-1.948l-1.713-6.522-.454-1.885-2.194 8.411zm12.6 0v-2.114h2.108v2.114z" transform="translate(1.277 8.966)"/><path id="Line_223" data-name="Line 223" class="cls-11" transform="translate(55.643 108.289)" d="M0 0h53.271"/><path id="Line_226" data-name="Line 226" class="cls-11" transform="translate(55.671 117.726)" d="M0 0h34.998"/><path id="Line_227" data-name="Line 227" class="cls-11" transform="translate(99.071 117.726)" d="M0 0h10.017"/><g class="cls-14" transform="translate(9.86 29.4)"><path id="Path_2506-2" data-name="Path 2506" class="cls-12" d="M22911.2 1956.359s1.213-22.759 18.4-25.288c20.068-2.884 26.9 14.178 26.9 14.178s9.023-6.389 16.707 1.005c6.453 6.659.8 14.633.8 14.633s14.359 3.913 14.119 18.3-14.119 16.922-14.119 16.922h-56.35s-16.449.832-18.564-16.922c-1.808-15.842 12.107-22.828 12.107-22.828z" transform="translate(-22809.93 -1875.91)"/></g><rect id="Rectangle_547" data-name="Rectangle 547" class="cls-13" width="39" height="8" rx="4" transform="translate(121.86 113.776)"/><rect id="Rectangle_548" data-name="Rectangle 548" class="cls-13" width="39" height="8" rx="4" transform="translate(121.86 124.776)"/><circle id="Ellipse_192" data-name="Ellipse 192" class="cls-12" cx="2" cy="2" r="2" transform="translate(123.86 115.776)"/><circle id="Ellipse_193" data-name="Ellipse 193" class="cls-12" cx="2" cy="2" r="2" transform="translate(123.86 126.776)"/></g></svg>