<svg xmlns="http://www.w3.org/2000/svg" viewBox="0 0 143.948 113.623"><defs><style>.cls-1{fill:#b5c3d7}.cls-10,.cls-13,.cls-2,.cls-3,.cls-4,.cls-5,.cls-6,.cls-7{fill:none;stroke-width:2px}.cls-2,.cls-5{stroke:#0072cb}.cls-2,.cls-3{stroke-linecap:round;stroke-linejoin:round}.cls-10,.cls-3,.cls-4{stroke:#b5c3d7}.cls-6{stroke:#20d3aa}.cls-7{stroke:#00072c;opacity:.2}.cls-8{fill:#ebeff7}.cls-9{fill:#0072cb}.cls-10{stroke-miterlimit:10}.cls-11{fill:#fff}.cls-12{fill:#20d3aa}.cls-13{stroke:#fff}</style></defs><g id="Company_final" transform="translate(-2.979 -33.784)"><path id="Rectangle_484" data-name="Rectangle 484" class="cls-1" transform="translate(100.171 62.591)" d="M0 0h18.286v7.155H0z"/><g id="Group_809" data-name="Group 809"><path id="Line_145" data-name="Line 145" class="cls-2" transform="translate(3.979 122.512)" d="M6.273 0H0"/><path id="Line_146" data-name="Line 146" class="cls-2" transform="translate(7.115 119.584)" d="M0 5.854V0"/></g><g id="Group_810" data-name="Group 810" transform="translate(-15 14)"><path id="Line_147" data-name="Line 147" class="cls-3" transform="translate(130.38 30.182)" d="M6.272 0H0"/><path id="Line_148" data-name="Line 148" class="cls-3" transform="translate(133.516 27.256)" d="M0 5.853V0"/></g><circle id="Ellipse_181" data-name="Ellipse 181" class="cls-4" cx="2.713" cy="2.713" r="2.713" transform="translate(14.75 55.469)"/><circle id="Ellipse_182" data-name="Ellipse 182" class="cls-5" cx="2.715" cy="2.715" r="2.715" transform="translate(140.497 137.769)"/><path id="Path_2445" data-name="Path 2445" class="cls-6" d="M132.275 101.18s1.875.938 3.047 0c0 0 1.248-2.291 3.436.42a1.688 1.688 0 0 0 1.8-.664s1.482-1.357 2.654.029"/><path id="Path_2446" data-name="Path 2446" class="cls-7" d="M29.779 69.15s1.874.937 3.046 0c0 0 1.25-2.292 3.437.416a1.677 1.677 0 0 0 1.794-.661s1.485-1.36 2.658.029"/><path id="Line_149" data-name="Line 149" class="cls-6" transform="translate(46.346 47.484)" d="M11.659 0H0"/><path id="Line_150" data-name="Line 150" class="cls-6" transform="translate(39.389 47.484)" d="M0 0h3.995"/><path id="Rectangle_485" data-name="Rectangle 485" class="cls-8" transform="translate(30.21 93.611)" d="M0 0h23.453v46.873H0z"/><path id="Rectangle_486" data-name="Rectangle 486" class="cls-9" transform="translate(53.663 61.413)" d="M0 0h39.354v79.104H0z"/><path id="Rectangle_487" data-name="Rectangle 487" class="cls-8" transform="translate(93.018 68.933)" d="M0 0h32.594v71.551H0z"/><path id="Rectangle_488" data-name="Rectangle 488" class="cls-8" transform="translate(64.197 47.484)" d="M0 0h18.286v7.156H0z"/><path id="Rectangle_489" data-name="Rectangle 489" class="cls-1" transform="translate(58.036 54.64)" d="M0 0h30.209v6.773H0z"/><path id="Line_152" data-name="Line 152" class="cls-10" transform="translate(100.171 79.07)" d="M0 0v51.28"/><path id="Line_153" data-name="Line 153" class="cls-10" transform="translate(108.52 79.07)" d="M0 0v51.28"/><path id="Line_154" data-name="Line 154" class="cls-10" transform="translate(116.469 79.07)" d="M0 0v51.28"/><g id="Group_811" data-name="Group 811"><path id="Rectangle_490" data-name="Rectangle 490" class="cls-11" transform="translate(58.036 68.567)" d="M0 0h3.976v3.976H0z"/><path id="Rectangle_491" data-name="Rectangle 491" class="cls-11" transform="translate(67.377 68.567)" d="M0 0h3.974v3.976H0z"/><path id="Rectangle_492" data-name="Rectangle 492" class="cls-11" transform="translate(75.725 68.567)" d="M0 0h3.977v3.976H0z"/><path id="Rectangle_493" data-name="Rectangle 493" class="cls-11" transform="translate(84.669 68.567)" d="M0 0h3.976v3.976H0z"/></g><g id="Group_842" data-name="Group 842"><g id="Group_812" data-name="Group 812"><path id="Rectangle_494" data-name="Rectangle 494" class="cls-1" transform="translate(33.726 96.957)" d="M0 0h3.476v3.477H0z"/><path id="Rectangle_495" data-name="Rectangle 495" class="cls-1" transform="translate(40.329 96.957)" d="M0 0h3.476v3.477H0z"/><path id="Rectangle_496" data-name="Rectangle 496" class="cls-1" transform="translate(47.107 96.957)" d="M0 0h3.475v3.477H0z"/></g><g id="Group_813" data-name="Group 813"><path id="Rectangle_497" data-name="Rectangle 497" class="cls-1" transform="translate(33.509 104.411)" d="M0 0h3.476v3.478H0z"/><path id="Rectangle_498" data-name="Rectangle 498" class="cls-1" transform="translate(40.112 104.411)" d="M0 0h3.476v3.478H0z"/><path id="Rectangle_499" data-name="Rectangle 499" class="cls-1" transform="translate(46.891 104.411)" d="M0 0h3.475v3.478H0z"/></g><g id="Group_814" data-name="Group 814"><path id="Rectangle_500" data-name="Rectangle 500" class="cls-1" transform="translate(33.509 111.586)" d="M0 0h3.476v3.475H0z"/><path id="Rectangle_501" data-name="Rectangle 501" class="cls-1" transform="translate(40.112 111.586)" d="M0 0h3.476v3.475H0z"/><path id="Rectangle_502" data-name="Rectangle 502" class="cls-1" transform="translate(46.891 111.586)" d="M0 0h3.475v3.475H0z"/></g><g id="Group_815" data-name="Group 815"><path id="Rectangle_503" data-name="Rectangle 503" class="cls-1" transform="translate(33.509 119.035)" d="M0 0h3.476v3.477H0z"/><path id="Rectangle_504" data-name="Rectangle 504" class="cls-1" transform="translate(40.112 119.035)" d="M0 0h3.476v3.477H0z"/><path id="Rectangle_505" data-name="Rectangle 505" class="cls-1" transform="translate(46.891 119.035)" d="M0 0h3.475v3.477H0z"/></g><g id="Group_816" data-name="Group 816"><path id="Rectangle_506" data-name="Rectangle 506" class="cls-1" transform="translate(33.509 126.589)" d="M0 0h3.476v3.476H0z"/><path id="Rectangle_507" data-name="Rectangle 507" class="cls-1" transform="translate(40.112 126.589)" d="M0 0h3.476v3.476H0z"/><path id="Rectangle_508" data-name="Rectangle 508" class="cls-1" transform="translate(46.891 126.589)" d="M0 0h3.475v3.476H0z"/></g><g id="Group_817" data-name="Group 817"><path id="Rectangle_509" data-name="Rectangle 509" class="cls-1" transform="translate(33.421 133.743)" d="M0 0h3.476v3.478H0z"/><path id="Rectangle_510" data-name="Rectangle 510" class="cls-1" transform="translate(40.026 133.743)" d="M0 0h3.475v3.478H0z"/><path id="Rectangle_511" data-name="Rectangle 511" class="cls-1" transform="translate(46.804 133.743)" d="M0 0h3.474v3.478H0z"/></g></g><g id="Group_818" data-name="Group 818"><path id="Rectangle_512" data-name="Rectangle 512" class="cls-11" transform="translate(58.036 77.083)" d="M0 0h3.976v3.976H0z"/><path id="Rectangle_513" data-name="Rectangle 513" class="cls-11" transform="translate(67.377 77.083)" d="M0 0h3.974v3.976H0z"/><path id="Rectangle_514" data-name="Rectangle 514" class="cls-11" transform="translate(75.725 77.083)" d="M0 0h3.977v3.976H0z"/><path id="Rectangle_515" data-name="Rectangle 515" class="cls-11" transform="translate(84.669 77.083)" d="M0 0h3.976v3.976H0z"/></g><g id="Group_819" data-name="Group 819"><path id="Rectangle_516" data-name="Rectangle 516" class="cls-11" transform="translate(57.837 85.034)" d="M0 0h3.975v3.975H0z"/><path id="Rectangle_517" data-name="Rectangle 517" class="cls-11" transform="translate(67.179 85.034)" d="M0 0h3.975v3.975H0z"/><path id="Rectangle_518" data-name="Rectangle 518" class="cls-11" transform="translate(75.527 85.034)" d="M0 0h3.974v3.975H0z"/><path id="Rectangle_519" data-name="Rectangle 519" class="cls-11" transform="translate(84.471 85.034)" d="M0 0h3.975v3.975H0z"/></g><g id="Group_820" data-name="Group 820"><path id="Rectangle_520" data-name="Rectangle 520" class="cls-11" transform="translate(57.837 92.586)" d="M0 0h3.975v3.975H0z"/><path id="Rectangle_521" data-name="Rectangle 521" class="cls-11" transform="translate(67.179 92.586)" d="M0 0h3.975v3.975H0z"/><path id="Rectangle_522" data-name="Rectangle 522" class="cls-11" transform="translate(75.527 92.586)" d="M0 0h3.974v3.975H0z"/><path id="Rectangle_523" data-name="Rectangle 523" class="cls-11" transform="translate(84.471 92.586)" d="M0 0h3.975v3.975H0z"/></g><g id="Group_821" data-name="Group 821"><path id="Rectangle_524" data-name="Rectangle 524" class="cls-11" transform="translate(57.837 100.566)" d="M0 0h3.975v3.976H0z"/><path id="Rectangle_525" data-name="Rectangle 525" class="cls-11" transform="translate(67.179 100.566)" d="M0 0h3.975v3.976H0z"/><path id="Rectangle_526" data-name="Rectangle 526" class="cls-11" transform="translate(75.527 100.566)" d="M0 0h3.974v3.976H0z"/><path id="Rectangle_527" data-name="Rectangle 527" class="cls-11" transform="translate(84.471 100.566)" d="M0 0h3.975v3.976H0z"/></g><g id="Group_822" data-name="Group 822"><path id="Rectangle_528" data-name="Rectangle 528" class="cls-11" transform="translate(57.837 108.12)" d="M0 0h3.975v3.976H0z"/><path id="Rectangle_529" data-name="Rectangle 529" class="cls-11" transform="translate(67.179 108.12)" d="M0 0h3.975v3.976H0z"/><path id="Rectangle_530" data-name="Rectangle 530" class="cls-11" transform="translate(75.527 108.12)" d="M0 0h3.974v3.976H0z"/><path id="Rectangle_531" data-name="Rectangle 531" class="cls-11" transform="translate(84.471 108.12)" d="M0 0h3.975v3.976H0z"/></g><g id="Group_823" data-name="Group 823"><path id="Rectangle_532" data-name="Rectangle 532" class="cls-11" transform="translate(57.837 115.855)" d="M0 0h3.975v3.976H0z"/><path id="Rectangle_533" data-name="Rectangle 533" class="cls-11" transform="translate(67.179 115.855)" d="M0 0h3.975v3.976H0z"/><path id="Rectangle_534" data-name="Rectangle 534" class="cls-11" transform="translate(75.527 115.855)" d="M0 0h3.974v3.976H0z"/><path id="Rectangle_535" data-name="Rectangle 535" class="cls-11" transform="translate(84.471 115.855)" d="M0 0h3.975v3.976H0z"/></g><g id="Group_824" data-name="Group 824"><path id="Rectangle_536" data-name="Rectangle 536" class="cls-11" transform="translate(57.837 123.807)" d="M0 0h3.975v3.976H0z"/><path id="Rectangle_537" data-name="Rectangle 537" class="cls-11" transform="translate(67.179 123.807)" d="M0 0h3.975v3.976H0z"/><path id="Rectangle_538" data-name="Rectangle 538" class="cls-11" transform="translate(75.527 123.807)" d="M0 0h3.974v3.976H0z"/><path id="Rectangle_539" data-name="Rectangle 539" class="cls-11" transform="translate(84.471 123.807)" d="M0 0h3.975v3.976H0z"/></g><g id="Group_825" data-name="Group 825"><path id="Rectangle_540" data-name="Rectangle 540" class="cls-11" transform="translate(57.837 131.557)" d="M0 0h3.975v3.975H0z"/><path id="Rectangle_541" data-name="Rectangle 541" class="cls-11" transform="translate(67.179 131.557)" d="M0 0h3.975v3.975H0z"/><path id="Rectangle_542" data-name="Rectangle 542" class="cls-11" transform="translate(75.527 131.557)" d="M0 0h3.974v3.975H0z"/><path id="Rectangle_543" data-name="Rectangle 543" class="cls-11" transform="translate(84.471 131.557)" d="M0 0h3.975v3.975H0z"/></g><path id="Path_2447" data-name="Path 2447" class="cls-10" d="M22.584 147.407v-6.889h111.053v6.889"/><g id="Group_843" data-name="Group 843" transform="translate(9 1)"><path id="Path_2448" data-name="Path 2448" class="cls-12" d="M82.911 39.913c-2.072-2.167-4.126-4.352-6.229-6.487-2.009-2.041-4.159-3.837-5.435-6.47a12.974 12.974 0 0 1-1.235-7.871c1.133-5.768 7.181-10.506 13.017-10.294 5.365.194 10.807 3.518 12.519 8.839a11.408 11.408 0 0 1-1.479 10.022 51.183 51.183 0 0 1-5.363 6.048q-2.338 2.5-4.669 5.006z" transform="translate(-3 24)"/><path id="Path_2449" data-name="Path 2449" class="cls-13" d="M73.208 22.753s-.589-7.747 6.862-9.575" transform="translate(-3 24)"/><circle id="Ellipse_183" data-name="Ellipse 183" class="cls-11" cx="6.102" cy="6.102" r="6.102" transform="translate(73.528 40.273)"/></g></g></svg>