<svg xmlns="http://www.w3.org/2000/svg" viewBox="0 0 131.822 128.269"><defs><style>.cls-1,.cls-2,.cls-3,.cls-4,.cls-5{fill:none}.cls-1,.cls-2{stroke:#0072cb}.cls-1{stroke-linecap:round;stroke-linejoin:round}.cls-1,.cls-2,.cls-3{stroke-width:2px}.cls-3,.cls-5{stroke:#b5c3d7}.cls-4{stroke:#00072c}.cls-4,.cls-9{opacity:.2}.cls-6{fill:#0072cb}.cls-7{opacity:.15}.cls-8,.cls-9{fill:#fff}.cls-10{fill:#20d3aa}</style></defs><g id="Ip_Type_icon" data-name="Ip Type_icon" transform="translate(-4.134 -5.45)"><g id="Group_852" data-name="Group 852" transform="translate(127 -12)"><path id="Line_231" data-name="Line 231" class="cls-1" transform="translate(1.205 141.566)" d="M6.751 0H0"/><path id="Line_232" data-name="Line 232" class="cls-1" transform="translate(4.579 138.42)" d="M0 6.299V0"/></g><g id="Group_853" data-name="Group 853"><path id="Line_233" data-name="Line 233" class="cls-1" transform="translate(85.514 9.601)" d="M6.749 0H0"/><path id="Line_234" data-name="Line 234" class="cls-1" transform="translate(88.884 6.45)" d="M0 6.302V0"/></g><path id="Path_2509" data-name="Path 2509" class="cls-2" d="M22.843 102.236a2.923 2.923 0 1 1-2.922-2.922 2.915 2.915 0 0 1 2.922 2.922z"/><path id="Path_2510" data-name="Path 2510" class="cls-3" d="M4.581 40.594s2.7 1.349 4.383 0c0 0 1.8-3.295 4.944.6a2.425 2.425 0 0 0 2.587-.95s2.134-1.958 3.822.039"/><path id="Path_2511" data-name="Path 2511" class="cls-3" d="M122.14 91.962s2.166 1.086 3.522 0c0 0 1.444-2.649 3.973.484a1.944 1.944 0 0 0 2.076-.767s1.717-1.572 3.07.032"/><path id="Line_235" data-name="Line 235" class="cls-3" transform="translate(105.714 123.691)" d="M5.436 0H0"/><path id="Line_237" data-name="Line 237" class="cls-5" transform="translate(10.659 67.521)" d="M0 0h5.686"/><path id="Line_240" data-name="Line 240" class="cls-3" transform="translate(17.619 126.388)" d="M0 0h17.765"/><circle id="Ellipse_195" data-name="Ellipse 195" class="cls-6" cx="49.569" cy="49.569" r="49.569" transform="translate(23.532 25.075)"/><g id="Group_854" data-name="Group 854" class="cls-7"><path id="Path_2512" data-name="Path 2512" class="cls-8" d="M29.861 50.417s-1.33 7.973 7.827 8.651c0 0 2.713-.678 2.883 3.562 0 0-1.018 7.122 4.409 5.426V53.811c0-1.827 4.1-1.437 5.035-1.112 2.259.781.991 3.273 2.291 4.725.308.344.61.695 1.116.613 2.551-.418 1.284-4.075 1.564-5.752a3.8 3.8 0 0 1 3.9-3.052s4.914 1.867 4.748-6.274v-5.6h-5.09a2.039 2.039 0 0 0-1.806 2.041v1.865s.451 1.357-2.771 2.035a2.529 2.529 0 0 1-2.544-2.374l-.17-3.561s.236-4.674-4.121-4.844c.001-.002-12.354 6.879-17.271 17.896z"/><path id="Path_2513" data-name="Path 2513" class="cls-8" d="M88.625 47.923h5.786s2.353 0 2.353-1.863v-4.218s-.489-1.961 2.943-2.06h8.729a50.637 50.637 0 0 1 12 20.093l.679 2.385-8.358-.017a2.7 2.7 0 0 1-3.04-2.648v-2.943a3.387 3.387 0 0 0-3.237-2.942s-2.648-.392-3.824 1.472c0 0-.3 2.354-1.275 2.746l-9.024.2a3.691 3.691 0 0 1-3.726-2.942v-7.263z"/><path id="Path_2514" data-name="Path 2514" class="cls-8" d="M43.483 70.778v13.328a4.31 4.31 0 0 0 4.388 4.388h3.206s2.7.168 2.7 3.543v11.813s.337 5.061 4.557 5.9h5.737V96.593a2.961 2.961 0 0 1 3.375-2.869S72 94.23 72 90.267V71.621s.424-4.391-2.194-4.387h-22.44s-3.883.339-3.883 3.544z"/><path id="Path_2515" data-name="Path 2515" class="cls-8" d="M122.631 76.591c-.295.034-5.309-.088-5.831-.093-1.6-.012-3.626.329-4.98-.719a3.121 3.121 0 0 1-1.42-2.539v-1.884H99.5a6.062 6.062 0 0 0-4.61 2.963c-.955 1.7-.766 3.664-.776 5.525-.014 2.016 0 4.028 0 6.044 0 4.41 5.888 3.521 8.659 3.639a4.7 4.7 0 0 1 3.991 3.763l-.064 17.795s15.136-11.772 15.931-34.494z"/></g><path id="Subtraction_3" data-name="Subtraction 3" class="cls-8" d="M-23898.439-2036.143l-.3-.312-.252-.263c-.6-.622-1.213-1.265-1.826-1.887-.15-.155-.3-.306-.451-.457a7.341 7.341 0 0 1-1.611-2.019 4.9 4.9 0 0 1-.477-3 5.178 5.178 0 0 1 4.811-3.922h.15a5.17 5.17 0 0 1 4.768 3.373 4.322 4.322 0 0 1-.553 3.81 13.4 13.4 0 0 1-1.561 1.8l-.047.046c-.15.152-.3.3-.447.458-.643.686-1.205 1.291-1.766 1.905l-.111.117a9.73 9.73 0 0 1-.33.342zm-.1-9a2.322 2.322 0 0 0-2.322 2.318 2.328 2.328 0 0 0 2.322 2.33 2.325 2.325 0 0 0 2.32-2.33 2.319 2.319 0 0 0-2.32-2.321z" transform="translate(23992.311 2087.134)"/><path id="Path_2518" data-name="Path 2518" class="cls-9" d="M61.713 77.377a3.1 3.1 0 0 0 .018 4.3 2.878 2.878 0 0 0 3.5.368c1.831-1.109 1.868-3.192.568-4.729"/><path id="Path_2519" data-name="Path 2519" class="cls-10" d="M69.351 92.836c-2.258-2.356-4.494-4.738-6.783-7.058-2.188-2.225-4.528-4.177-5.919-7.043a14.14 14.14 0 0 1-1.349-8.571c1.236-6.283 7.821-11.436 14.175-11.206 5.84.209 11.767 3.83 13.629 9.622A12.427 12.427 0 0 1 81.5 79.5a56 56 0 0 1-5.837 6.578q-2.546 2.724-5.084 5.45c-.411.43-.821.872-1.228 1.308z" transform="translate(-5.683 -12.362)"/><ellipse id="Ellipse_198" data-name="Ellipse 198" class="cls-8" cx="6.644" cy="6.644" rx="6.644" ry="6.644" transform="translate(56.717 54.739)"/></g></svg>