<svg width="41" height="52" viewBox="0 0 41 52" fill="none" xmlns="http://www.w3.org/2000/svg">
<path fill-rule="evenodd" clip-rule="evenodd" d="M22.5373 38.9856L25.8684 42.8654L29.7176 39.5087L33.4862 36.2226C37.5342 32.6711 40.023 27.6496 40.4089 22.255C40.7948 16.8605 39.0466 11.5312 35.546 7.4313C32.0217 3.3522 27.0387 0.844284 21.6855 0.455378C16.3322 0.0664713 11.0438 1.82818 6.97535 5.35569C2.92734 8.90719 0.438563 13.9287 0.0526281 19.3232C-0.333307 24.7178 1.41497 30.0471 4.91558 34.147L18.2093 49.6252C19.3966 51.0084 20.6464 52.5062 22.576 50.9096L22.6337 50.8606L22.6897 50.8108C24.5353 49.1122 23.2434 47.6517 22.0562 46.2686L21.2273 45.303L8.76487 30.7861C6.1475 27.7151 4.84103 23.7259 5.13026 19.6882C5.41948 15.6505 7.28094 11.8917 10.3089 9.23128C13.3565 6.59377 17.3152 5.27724 21.3221 5.56869C25.3289 5.86014 29.059 7.73593 31.6991 10.7872C34.3169 13.8582 35.6236 17.8475 35.3346 21.8854C35.0455 25.9233 33.184 29.6823 30.156 32.3428L26.3874 35.629L23.0564 31.75L19.7253 27.8711L16.4643 24.0736C15.6128 23.0605 15.1891 21.7516 15.284 20.4274C15.3789 19.1033 15.9848 17.8693 16.9718 16.9899C17.9772 16.1321 19.2761 15.7053 20.5901 15.8009C21.9041 15.8965 23.1287 16.5069 24.0014 17.5014C24.725 18.3638 25.1434 19.4442 25.1909 20.5725C25.2383 21.7008 24.912 22.813 24.2634 23.734C24.2332 23.7766 24.2024 23.8187 24.1711 23.8602C23.8401 24.3412 23.6768 24.9192 23.7066 25.5038C23.7364 26.0883 23.9577 26.6464 24.3359 27.0907C26.0084 29.0385 27.854 27.6984 28.8369 26.0496C29.9316 24.2115 30.4251 22.0731 30.2477 19.9369C30.0703 17.8006 29.2309 15.7747 27.8482 14.1455C26.0919 12.1225 23.6145 10.8793 20.9541 10.6858C18.2936 10.4922 15.6648 11.364 13.6383 13.1118C11.6307 14.8817 10.397 17.3781 10.2049 20.059C10.0129 22.74 10.878 25.389 12.6125 27.4311L15.8736 31.2286L19.2062 35.1034L22.5373 38.9823V38.9856Z" fill="#007EBA"/>
</svg>
