<svg width="160" height="48" fill="none" xmlns="http://www.w3.org/2000/svg"><path d="M80.577 25.23c2.265 0 3.48-1.003 4.218-2.149l-.041.175c-.215 1.074.679 1.732 1.519 1.732H87l2.026-11.538h-2.508l-.334 1.76c-.453-.91-1.732-2-3.797-2-3.647 0-5.81 3.01-6.171 6.214-.415 3.665 1.949 5.807 4.359 5.807zm2.172-10.139c4.203.234 2.835 8.277-1.438 8.04-3.863-.216-2.662-8.269 1.438-8.04zM48.171 12.67c0-2.61-1.674-3.824-4.613-3.824-1.807 0-4.652-.005-5.69-.005L35 24.988l5.209-.002c1.19 0 2.324-.039 2.962-.173 2.923-.619 4.109-2.747 4.344-4.307.327-2.162-1.036-3.592-2.584-3.938 1.162-.252 3.24-1.452 3.24-3.898zM42.06 23.006c-.327.078-.849.123-1.94.123h-1.896l.959-5.415h2.81c3.71 0 3.373 4.47.067 5.291zm1.103-7.363c-.358.118-.834.152-1.7.152h-1.94l.91-5.166h2.54c3.047 0 2.808 4.152.19 5.015v-.001zm16.08-2.183h-.749s-1.105 6.34-1.228 7.062c-.269 1.553-1.016 2.617-3.117 2.617-1.192 0-2.358-.723-2.085-2.342.107-.626.898-5.233.966-5.605.22-1.246-.839-1.732-1.713-1.732h-.662c-.163.964-.89 5.016-1.166 6.605-.114.64-.155 1.287-.106 1.708.248 2.152 2.136 3.466 4.47 3.466 4.033 0 5.549-2.109 6.031-4.616.158-.826.922-5.01.982-5.43.174-1.247-.852-1.733-1.623-1.733zm4.149 16.08l1.169-6.364c.454.908 1.75 2.063 3.817 2.063 3.72 0 6.022-2.908 6.253-6.313.245-3.618-1.878-5.702-4.34-5.702-2.135 0-3.592 1.041-4.333 2.124l.03-.156c.237-1.113-.712-1.732-1.517-1.732h-.797s-2.169 12.42-2.466 13.914c-.35 1.757 1.073 2.167 1.524 2.167h.66zm6.064-14.247c3.863.216 2.66 8.291-1.44 8.064-4.201-.233-2.837-8.3 1.44-8.064zm54.039 14.55c-1.077 0-2.542-.06-3.416-.36-1.032-.353-1.942-1.056-2.906-1.798-.484-.371-.983-.758-1.523-1.116-.657-.438-1.204-.642-1.726-.642-.703 0-1.387.382-2.219 1.242-1.124 1.159-2.917 3.79-3.633 4.867-.047.066-.107.14-.198.14-.175 0-.18-.23-.18-.305-.035-3.012-.507-19.446-.836-24.353-.145-2.17-.819-3.518-1.757-3.518-.754 0-1.885 1.004-2.591 3.836-1.8 7.207-5.64 23.231-7.291 31.37-.049.224-.3.222-.347 0-.185-.832-.346-1.776-.502-2.571-.493-2.51-.92-4.679-1.76-5.871-.962-1.356-2.38-1.441-4.1-.3-.38.253-.746.568-1.132.902-1.105.951-2.352 2.032-4.425 2.032H62.684l-.497 2.69h21.327c2.18 0 4.201-1.257 5.41-2.124.612-.441 1.036-.696 1.376-.696.468 0 .678.476.852 1.193.085.35.19.835.309 1.396.404 1.859 1.01 4.788 1.78 6.736.36.906.892 1.407 1.5 1.407.931 0 1.883-1.104 2.42-2.811.718-2.276 5.03-20.985 6.849-28.821.075-.32.115-.503.119-.517.032-.137.125-.23.233-.23.095 0 .201.082.205.259l.002.03c.139 7.929.532 21.853 1.121 23.283.326.79.825 1.208 1.444 1.208.719 0 1.582-.578 2.195-1.475.308-.45.702-1.038 1.119-1.658 1.03-1.533 2.197-3.267 2.541-3.638.513-.546 1.104-.546 1.943.026.121.083.267.188.437.312.895.65 2.391 1.543 4.072 2.007 1.115.306 2.55.37 3.555.37.649 0 1.34-.026 1.541-.039l.462-2.492c-.243.011-.899.03-1.506.03h.001z" fill="#00AEEF"/></svg>