<svg width="160" height="48" fill="none" xmlns="http://www.w3.org/2000/svg"><path d="M133.083 35.277a.905.905 0 01-.65-.268.92.92 0 01-.266-.652c0-.498.405-.92.916-.92.496 0 .917.407.917.92a.938.938 0 01-.917.92zm0-1.66a.737.737 0 00-.52 1.262.737.737 0 00.52.217.737.737 0 00.736-.74.74.74 0 00-.736-.738zm.466 1.223h-.211l-.18-.348h-.241v.348h-.195v-1.011h.481c.211 0 .346.135.346.332a.314.314 0 01-.21.302l.21.38v-.003zm-.361-.529c.075 0 .151-.045.151-.15 0-.121-.06-.151-.151-.151h-.3v.302h.3zM44.003 41.81H37.59v-8.463h2.344v6.411h4.073l-.004 2.052zm2.42-4.209v-.03c0-2.428 1.952-4.404 4.552-4.404 2.6 0 4.524 1.946 4.524 4.375v.03c0 2.428-1.954 4.404-4.553 4.404-2.6 0-4.524-1.946-4.524-4.375zm6.701 0v-.03c0-1.221-.872-2.278-2.164-2.278-1.278 0-2.134 1.041-2.134 2.263v.03c0 1.221.872 2.278 2.149 2.278 1.292 0 2.149-1.041 2.149-2.263zm5.244.498v-4.752h2.374v4.707c0 1.221.616 1.795 1.549 1.795.932 0 1.548-.558 1.548-1.734v-4.768h2.374v4.691c0 2.73-1.548 3.922-3.952 3.922-2.39 0-3.892-1.207-3.892-3.863l-.001.002zm11.42-4.754h3.247c3.005 0 4.764 1.735 4.764 4.18v.03c0 2.443-1.774 4.253-4.809 4.253h-3.2v-8.461l-.001-.002zm3.292 6.382c1.397 0 2.328-.77 2.328-2.142v-.03c0-1.358-.931-2.142-2.328-2.142h-.947v4.3h.947v.014zm10.444-2.881h3.997v1.946h-3.998v3.017h-2.328v-8.462h6.747v2.051h-4.418v1.448zm14.08 4.963h-6.412v-8.462h2.328v6.411h4.088l-.004 2.051zm6.101-8.523h2.254l3.592 8.524h-2.511l-.615-1.509h-3.246l-.602 1.509h-2.449l3.577-8.524zm2.059 5.19l-.932-2.395-.946 2.4h1.878v-.005zm6.792-5.13h3.983c1.292 0 2.179.333 2.749.921.496.483.751 1.131.751 1.976v.03c0 1.297-.692 2.157-1.728 2.595l2.014 2.957h-2.705l-1.698-2.564H114.9v2.564h-2.344v-8.478zm3.881 4.06c.797 0 1.247-.393 1.247-.996v-.03c0-.663-.481-.995-1.262-.995h-1.533v2.021h1.549-.001zm9.287-.785h4.042v1.855h-4.042v1.342h4.523v1.992h-6.837v-8.463h6.778v1.991h-4.464v1.283zm-93.247 1.976c-.331.74-1.022 1.268-1.924 1.268-1.278 0-2.15-1.072-2.15-2.28v-.029c0-1.222.857-2.263 2.135-2.263.962 0 1.698.59 1.998 1.404h2.465c-.391-2.022-2.164-3.516-4.448-3.516-2.6 0-4.553 1.976-4.553 4.405v.03c0 2.428 1.924 4.375 4.523 4.375 2.225 0 3.968-1.449 4.418-3.38l-2.464-.015v.001z" fill="#404041"/><path d="M93.487 29.273h33.932v-9.43l-6.446-3.71-1.113-.483-26.372.18v13.443z" fill="#fff"/><path d="M115.682 28.036c.316-1.087.196-2.083-.331-2.821-.48-.679-1.292-1.072-2.269-1.116l-18.499-.242a.342.342 0 01-.285-.15.42.42 0 01-.045-.333c.06-.18.24-.317.435-.332l18.664-.241c2.209-.106 4.613-1.901 5.455-4.104l1.067-2.795a.595.595 0 00.03-.363c-1.201-5.456-6.055-9.53-11.856-9.53-5.349 0-9.888 3.47-11.51 8.283a5.507 5.507 0 00-3.832-1.072c-2.57.257-4.628 2.324-4.884 4.903a5.79 5.79 0 00.135 1.916c-4.193.121-7.543 3.56-7.543 7.8 0 .38.03.754.075 1.13.03.181.18.317.36.317h34.142a.46.46 0 00.436-.332l.256-.92-.001.002z" fill="#F38020"/><path d="M121.573 16.103l-.511.015c-.12 0-.225.09-.27.212l-.717 2.52c-.315 1.086-.195 2.082.331 2.82.481.68 1.292 1.072 2.27 1.117l3.937.241a.34.34 0 01.285.151c.06.09.075.226.045.332a.508.508 0 01-.436.332l-4.102.241c-2.224.106-4.613 1.901-5.455 4.105l-.3.77c-.06.15.045.3.211.3h14.095a.37.37 0 00.36-.27c.241-.876.38-1.796.38-2.746 0-5.582-4.538-10.138-10.113-10.138" fill="#FAAE40"/></svg>