<svg width="160" height="48" fill="none" xmlns="http://www.w3.org/2000/svg"><path d="M31.328 26.42c-.415 2.056-1.23 3.637-2.443 4.745s-2.555 1.662-4.026 1.662c-1.752 0-3.28-.745-4.583-2.233-1.302-1.488-1.954-3.499-1.954-6.032 0-2.454.722-4.447 2.165-5.981 1.443-1.534 3.176-2.3 5.197-2.3 1.517 0 2.763.406 3.74 1.218.978.812 1.466 1.656 1.466 2.53 0 .432-.137.781-.413 1.048-.275.267-.66.4-1.154.4-.662 0-1.162-.215-1.499-.647-.19-.238-.317-.693-.379-1.363s-.29-1.181-.682-1.534c-.394-.34-.938-.51-1.635-.51-1.123 0-2.027.42-2.712 1.26-.91 1.114-1.365 2.585-1.365 4.414 0 1.863.453 3.507 1.357 4.933.904 1.425 2.125 2.138 3.664 2.138 1.1 0 2.089-.38 2.965-1.142.618-.522 1.219-1.47 1.803-2.845l.488.238zm6.705-10.14v3.51c1.292-2.34 2.617-3.51 3.976-3.51.618 0 1.13.19 1.533.571.405.381.607.821.607 1.321 0 .443-.146.818-.438 1.125-.292.306-.64.46-1.044.46-.394 0-.834-.196-1.323-.588-.489-.392-.85-.588-1.087-.588-.202 0-.42.114-.657.34-.505.467-1.027 1.233-1.567 2.301v7.48c0 .864.107 1.517.32 1.96.147.307.405.563.776.767.37.205.904.307 1.6.307v.613h-7.901v-.613c.786 0 1.37-.125 1.752-.375.28-.182.477-.471.59-.869.056-.193.084-.744.084-1.653v-6.05c0-1.817-.037-2.899-.11-3.245-.073-.347-.208-.6-.404-.759a1.127 1.127 0 00-.733-.238c-.348 0-.741.085-1.18.255l-.168-.613 4.667-1.908h.707zM53.786 30.1c-1.584 1.238-2.578 1.954-2.982 2.147a4.513 4.513 0 01-1.938.426c-1.067 0-1.946-.37-2.636-1.108-.691-.738-1.036-1.71-1.036-2.913 0-.762.168-1.42.505-1.977.46-.772 1.26-1.5 2.4-2.181 1.14-.682 3.036-1.511 5.687-2.488v-.613c0-1.557-.245-2.625-.733-3.204-.489-.58-1.2-.869-2.131-.869-.708 0-1.27.193-1.685.58-.427.386-.64.829-.64 1.329l.033.988c0 .522-.132.926-.396 1.21-.263.284-.609.426-1.036.426-.415 0-.755-.148-1.019-.443-.264-.296-.396-.699-.396-1.21 0-.977.494-1.875 1.483-2.692.988-.818 2.375-1.227 4.161-1.227 1.37 0 2.493.233 3.37.698.662.352 1.15.903 1.465 1.653.202.489.303 1.488.303 3v5.299c0 1.488.029 2.4.085 2.735.056.335.148.559.278.673.129.113.278.17.446.17.18 0 .337-.04.472-.12.236-.147.69-.562 1.365-1.243v.954c-1.258 1.704-2.46 2.556-3.606 2.556-.55 0-.988-.193-1.314-.58-.326-.386-.494-1.044-.505-1.976zm0-1.108v-5.947c-1.696.682-2.791 1.165-3.285 1.449-.888.5-1.522 1.022-1.904 1.568a3.053 3.053 0 00-.573 1.789c0 .818.241 1.497.724 2.036.483.54 1.04.81 1.668.81.854 0 1.977-.569 3.37-1.704zM64.265 8.119c.471 0 .873.168 1.204.503.332.335.497.741.497 1.218 0 .478-.165.887-.497 1.227-.331.341-.733.512-1.204.511-.472 0-.876-.17-1.213-.51a1.682 1.682 0 01-.506-1.228c0-.477.166-.883.497-1.218a1.65 1.65 0 011.222-.503zm1.398 8.163v12.541c0 .977.07 1.627.21 1.951.141.324.349.565.624.724.275.16.778.239 1.508.239v.613h-7.497v-.613c.752 0 1.258-.074 1.516-.222.258-.147.463-.392.615-.732.151-.341.227-.994.227-1.96v-6.015c0-1.693-.05-2.789-.151-3.289-.079-.363-.202-.616-.37-.758-.17-.142-.4-.213-.692-.213-.314 0-.696.085-1.145.255l-.236-.613 4.65-1.908h.741zm8.373 10.377c-.943-.466-1.668-1.116-2.173-1.951a5.245 5.245 0 01-.758-2.77c0-1.544.575-2.873 1.727-3.986 1.15-1.114 2.625-1.67 4.422-1.67 1.471 0 2.746.363 3.824 1.09h3.269c.483 0 .763.014.842.043a.289.289 0 01.169.145c.067.102.1.284.1.545 0 .295-.028.5-.084.613a.346.346 0 01-.177.137c-.084.034-.367.05-.85.05h-2.005c.629.819.943 1.864.943 3.136 0 1.454-.55 2.698-1.65 3.732-1.102 1.034-2.578 1.55-4.432 1.55a8.52 8.52 0 01-2.341-.34c-.495.431-.829.81-1.003 1.133-.174.324-.26.6-.26.826 0 .194.092.38.277.563.185.181.548.312 1.087.392.314.045 1.1.085 2.358.119 2.314.057 3.813.136 4.499.238 1.044.148 1.878.54 2.501 1.176.624.636.935 1.42.935 2.352 0 1.283-.595 2.488-1.785 3.612-1.752 1.659-4.038 2.488-6.857 2.488-2.168 0-3.999-.494-5.493-1.482-.842-.568-1.263-1.16-1.263-1.773 0-.272.062-.545.185-.817.191-.42.584-1.006 1.18-1.756.078-.102.651-.715 1.718-1.84-.584-.352-.997-.667-1.238-.946a1.404 1.404 0 01-.362-.945c0-.398.16-.864.48-1.398.32-.534 1.058-1.289 2.215-2.266zm2.931-9.56c-.83 0-1.527.336-2.088 1.006-.562.67-.843 1.698-.843 3.084 0 1.795.382 3.187 1.146 4.175.584.75 1.325 1.125 2.224 1.125.853 0 1.555-.324 2.105-.972.55-.647.826-1.664.826-3.05 0-1.806-.388-3.22-1.163-4.243-.572-.75-1.308-1.124-2.207-1.124zm-3.1 15.251c-.527.58-.926 1.12-1.196 1.62-.27.499-.404.96-.404 1.38 0 .545.326 1.022.977 1.43 1.123.705 2.746 1.057 4.87 1.057 2.02 0 3.512-.36 4.472-1.082.96-.721 1.44-1.49 1.44-2.309 0-.59-.286-1.01-.859-1.26-.584-.25-1.74-.398-3.47-.444-2.527-.068-4.47-.199-5.83-.392zm23.267-16.068v5.316h-.556c-.427-1.67-.975-2.806-1.643-3.408-.668-.602-1.519-.903-2.552-.903-.786 0-1.421.21-1.904.63-.483.42-.724.886-.724 1.398 0 .636.18 1.181.539 1.636.348.465 1.056.96 2.123 1.482l2.46 1.21c2.28 1.125 3.42 2.607 3.42 4.447 0 1.42-.531 2.565-1.593 3.434-1.061.869-2.249 1.304-3.563 1.304-.944 0-2.022-.17-3.235-.512-.37-.113-.674-.17-.91-.17-.258 0-.46.147-.606.443h-.556v-5.572h.556c.314 1.59.915 2.789 1.803 3.595.887.807 1.88 1.21 2.982 1.21.775 0 1.406-.23 1.895-.69.489-.46.733-1.014.733-1.661 0-.784-.273-1.443-.817-1.977-.545-.534-1.632-1.21-3.26-2.028-1.629-.818-2.696-1.556-3.201-2.215-.506-.648-.758-1.465-.758-2.454 0-1.284.435-2.357 1.305-3.22.87-.864 1.997-1.295 3.378-1.295.607 0 1.342.13 2.207.392.573.17.955.255 1.146.255.18 0 .32-.04.421-.12.101-.079.219-.255.354-.527h.556zm8.743-8.163v20.704c0 .977.071 1.625.211 1.943.14.318.357.56.649.724.292.165.836.247 1.634.247v.613h-7.565v-.613c.708 0 1.191-.074 1.449-.222.259-.147.461-.392.607-.732.146-.341.219-.994.219-1.96V14.645c0-1.761-.039-2.843-.118-3.246-.079-.404-.205-.68-.379-.827-.174-.147-.396-.221-.666-.221-.292 0-.662.09-1.112.272l-.286-.596 4.599-1.909h.758zm8.188 0c.472 0 .874.168 1.205.503.331.335.497.741.497 1.218 0 .478-.166.887-.497 1.227-.331.341-.733.512-1.205.511-.471 0-.876-.17-1.213-.51a1.682 1.682 0 01-.505-1.228c0-.477.165-.883.497-1.218a1.65 1.65 0 011.221-.503zm1.399 8.163v12.541c0 .977.07 1.627.21 1.951.141.324.348.565.624.724.275.16.777.239 1.507.239v.613h-7.497v-.613c.753 0 1.258-.074 1.517-.222.258-.147.463-.392.614-.732.152-.341.228-.994.228-1.96v-6.015c0-1.693-.051-2.789-.152-3.289-.078-.363-.202-.616-.37-.758-.169-.142-.399-.213-.691-.213-.315 0-.696.085-1.146.255l-.236-.613 4.65-1.908h.742zm14.219 0v5.316h-.556c-.427-1.67-.975-2.806-1.643-3.408-.668-.602-1.519-.903-2.552-.903-.786 0-1.421.21-1.904.63-.483.42-.724.886-.724 1.398 0 .636.179 1.181.539 1.636.348.465 1.055.96 2.122 1.482l2.46 1.21c2.28 1.125 3.42 2.607 3.42 4.447 0 1.42-.531 2.565-1.592 3.434-1.061.869-2.249 1.304-3.563 1.304-.944 0-2.022-.17-3.235-.512-.37-.113-.674-.17-.91-.17-.258 0-.46.147-.606.443h-.556v-5.572h.556c.314 1.59.915 2.789 1.803 3.595.887.807 1.881 1.21 2.982 1.21.775 0 1.406-.23 1.895-.69.488-.46.733-1.014.733-1.661 0-.784-.273-1.443-.817-1.977-.545-.534-1.632-1.21-3.26-2.028-1.629-.818-2.696-1.556-3.201-2.215-.506-.648-.758-1.465-.758-2.454 0-1.284.435-2.357 1.305-3.22.871-.864 1.997-1.295 3.378-1.295.607 0 1.342.13 2.207.392.573.17.955.255 1.146.255.179 0 .32-.04.421-.12.101-.079.219-.255.354-.527h.556zm7.918-4.67v5.13h3.605v1.192h-3.605v10.122c0 1.011.143 1.693.43 2.045.286.352.654.528 1.103.528.371 0 .73-.116 1.078-.349.348-.233.618-.576.809-1.03h.657c-.393 1.112-.949 1.95-1.668 2.513-.719.562-1.46.843-2.224.843-.516 0-1.022-.145-1.516-.435a2.618 2.618 0 01-1.095-1.244c-.236-.54-.354-1.371-.354-2.496V17.933h-2.443v-.562c.618-.25 1.25-.673 1.896-1.27a10.08 10.08 0 001.726-2.12c.259-.432.618-1.222 1.079-2.37h.522z" fill="purple"/></svg>