<svg width="160" height="48" fill="none" xmlns="http://www.w3.org/2000/svg"><path d="M17.01 15.502c-3.472 0-3.566.217-3.398 1.253h1.157c1.085 0 1.326.146 1.326 1.084v11.376c0 1.615-.458 1.785-3.037 1.929-.077.313-.077.7 0 .94h9.058c6.893 0 9.738-3.328 9.738-8.292 0-5.158-3.017-8.292-9.961-8.292l-4.883.002zm2.098 13.546V16.924h2.483c4.63 0 7.039 2.698 7.039 7.328 0 5.19-2.627 6.512-6.75 6.512-2.242 0-2.772-.24-2.772-1.71v-.006zM42.54 15.67c-1.134 0-1.446.386-2.243 2.242l-4.772 11.304c-.652 1.54-.868 1.684-2.725 1.926-.072.313-.072.7 0 .94h6.896c.601 0 .77-.387.601-1.085h-2.071c-1.327 0-1.327-.36-.773-1.784l.988-2.629h6.22l1.519 3.64c.266.628 0 .844-2.627.916-.073.318-.073.705 0 .945h7.81c.628 0 .774-.387.628-1.082h-.55c-1.23 0-1.496-.216-1.762-.843l-5.57-12.7c-.386-.842-.55-1.246-.627-1.778l-.942-.012zm-1.061 3.325l2.629 6.269h-5.136l2.507-6.27zm13.139-3.01c-1.013 0-1.157.456-1.013 1.082h1.158c1.109 0 1.325.146 1.325 1.013v11.52c0 .989-.464 1.23-2.389 1.543-.103.314-.103.7 0 .94h7.322c.722 0 .791-.386.628-1.084h-1.298c-1.014 0-1.255-.169-1.255-1.011v-11.45c0-1.013.31-1.47 2.407-1.616.068-.24.068-.722 0-.939l-6.885.001zm28.954 0l-5.57 11.592-6.052-11.594h-4.868c-1.006 0-1.152.524-1.006 1.083 2.39.068 2.536.335 2.458 1.108L67.547 29.5c-.069 1.014-.292 1.495-2.94 1.64-.068.31-.068.628 0 .937h7.907c.68 0 .774-.387.602-1.083h-1.298c-2.552 0-2.552-.24-2.483-1.185l.773-10.827 6.66 13.156c.55 0 .748-.146 1.187-1.014l5.79-12.15 1.082 10.509c.12 1.176-.216 1.443-2.24 1.563l-1.303.068a1.58 1.58 0 000 .937h8.508c.677 0 .748-.387.677-1.083-1.857-.241-2.243-.31-2.316-1.083l-1.16-11.762c-.07-.696.075-1.083 2.312-1.23.101-.309.101-.627 0-.936l-5.732.028zm11.523 0c-1.013 0-1.157.456-1.013 1.082h1.156c1.014 0 1.327.146 1.327 1.013V29.12c0 1.566-.53 1.88-2.87 2.024-.076.314-.05.626 0 .94h11.758c.309-1.495.747-2.892 1.254-4.339.249-.718-.069-1.013-.722-1.013l-.077.002-.68 1.494c-1.014 2.17-1.255 2.291-3.042 2.291h-1.547c-.68 0-1.092-.217-1.092-1.014V18.852c0-1.566.481-1.784 3.012-1.929.068-.24.068-.721 0-.939l-7.464.001zm15.622 0c-1.061 0-1.157.456-1.061 1.082h1.152c1.082 0 1.297.146 1.297 1.013v11.136c0 1.614-.464 1.783-3.016 1.927a1.586 1.586 0 000 .94h13.304c.309-1.495.773-2.964 1.254-4.34.232-.695-.077-1.014-.722-1.014l-.077.003-.679 1.493c-1.014 2.17-1.254 2.29-3.042 2.29h-2.071c-1.641 0-1.857-.36-1.857-1.229v-4.242h2.53c.628 0 .941.217 1.255 2.096.125.057.272.082.415.082.16 0 .314-.026.43-.078a52.83 52.83 0 010-4.743c.049-.747-.215-.91-.696-.91h-.29l-.163 1.228c-.075.627-.22.868-.942.868h-2.531v-6.193h3.859c1.325 0 1.83.386 2.239 1.855l.319 1.083c.06.009.111.009.165.009.645 0 .886-.404.774-1.091a35.89 35.89 0 01-.382-3.248l-11.464-.018zm17.26-.074c-.988.072-1.158.53-.988 1.156h1.157c.988 0 1.327.146 1.327 1.091v11.136c0 1.47-.483 1.71-2.581 1.856a2.5 2.5 0 000 .945h7.594c.7 0 .772-.387.7-1.083h-1.228c-1.255 0-1.471-.24-1.471-.936v-3.54h1.616c1.469 0 1.518.077 2.121 1.16.627 1.108 1.495 2.08 2.291 2.775 1.784 1.547 3.254 2.028 5.496 2.028 2.561 0 3.163-.627 2.948-1.47-2.097 0-3.154-.214-6.334-2.775-.911-.747-2.724-2.405-2.724-2.405 2.002-.843 3.257-2.484 3.257-4.503 0-3.3-2.553-5.49-7.185-5.49-3.369 0-4.821 0-5.973.094l-.023-.04zm4.535 1.34h.824c2.724 0 4.649 1.015 4.649 4.266 0 3.25-1.926 3.64-4.314 3.64h-1.157l-.002-7.906z" fill="#656868"/></svg>