<svg width="160" height="48" fill="none" xmlns="http://www.w3.org/2000/svg"><path d="M45.002 13.14c-6.716 0-12.313 2.787-12.313 11.193 0 6.659 3.763 10.853 12.486 10.853 10.267 0 10.925-6.613 10.925-6.613h-4.974s-1.067 3.56-6.254 3.56c-4.225 0-7.263-2.79-7.263-6.703H56.62v-2.454c0-3.87-2.513-9.836-11.62-9.836zm-.174 3.138c4.022 0 6.764 2.409 6.764 6.02H37.719c0-3.834 3.578-6.021 7.109-6.021z" fill="#E53238"/><path d="M56.617 5v25.964c0 1.474-.108 3.543-.108 3.543h4.746s.17-1.486.17-2.844c0 0 2.344 3.587 8.718 3.587 6.713 0 11.273-4.558 11.273-11.087 0-6.074-4.189-10.96-11.262-10.96-6.623 0-8.681 3.498-8.681 3.498V5h-4.855zM68.93 16.415c4.558 0 7.457 3.309 7.457 7.748 0 4.761-3.348 7.875-7.425 7.875-4.865 0-7.49-3.715-7.49-7.833 0-3.837 2.356-7.79 7.458-7.79z" fill="#0064D2"/><path d="M93.207 13.14c-10.103 0-10.75 5.41-10.75 6.275h5.028s.263-3.159 5.376-3.159c3.322 0 5.896 1.487 5.896 4.346v1.017H92.86c-7.826 0-11.965 2.24-11.965 6.784 0 4.472 3.823 6.905 8.99 6.905 7.042 0 9.31-3.805 9.31-3.805 0 1.513.12 3.004.12 3.004h4.471s-.173-1.848-.173-3.031V21.255c0-6.703-5.53-8.114-10.405-8.114zm5.55 11.532v1.356c0 1.77-1.116 6.169-7.69 6.169-3.6 0-5.143-1.756-5.143-3.794 0-3.707 5.198-3.73 12.833-3.73z" fill="#F5AF02"/><path d="M100.904 13.99h5.658l8.12 15.907 8.1-15.908h5.125l-14.755 28.32h-5.376l4.258-7.895-11.129-20.425h-.001z" fill="#86B817"/></svg>