<svg width="160" height="48" fill="none" xmlns="http://www.w3.org/2000/svg"><path d="M47.14 8.446H41v5.971h6.14v-5.97z" fill="#00AAE8"/><path d="M46.987 39.554V18.05h-5.812v21.504h5.812zm38.628.212v-5.27c-.852 0-1.573-.042-2.097-.127-.612-.085-1.07-.297-1.377-.595-.306-.297-.502-.722-.612-1.275-.087-.53-.13-1.232-.13-2.082v-7.522h4.216V18.05h-4.217V9.657h-5.833V30.46c0 1.764.153 3.252.459 4.441.305 1.17.83 2.125 1.55 2.848.722.722 1.683 1.232 2.841 1.55 1.18.32 2.666.468 4.435.468h.765zM119 39.554V8h-5.834v31.554H119zm-49.05-19.4c-1.617-1.7-3.89-2.55-6.774-2.55-1.398 0-2.665.277-3.823.829-1.136.552-2.12 1.317-2.884 2.295l-.328.403v-3.08h-5.746v21.503h5.79V28.1v.404c.065-2.019.568-3.506 1.53-4.462 1.026-1.02 2.272-1.53 3.692-1.53 1.682 0 2.971.51 3.823 1.487.83.977 1.267 2.359 1.267 4.122v11.41h5.878V27.337c.022-3.06-.809-5.482-2.425-7.182zm40.201 8.606a11.56 11.56 0 00-.83-4.356 11.632 11.632 0 00-2.338-3.549c-1.005-1.02-2.207-1.806-3.605-2.38-1.398-.573-2.949-.85-4.632-.85-1.595 0-3.102.298-4.5.872-1.399.595-2.622 1.38-3.65 2.38a11.072 11.072 0 00-2.446 3.548c-.612 1.36-.896 2.826-.896 4.377 0 1.551.284 3.017.852 4.377a10.898 10.898 0 002.381 3.549c1.005.998 2.25 1.806 3.693 2.38 1.442.595 3.037.892 4.741.892 4.938 0 7.997-2.189 9.832-4.228l-4.195-3.103c-.874 1.02-2.971 2.401-5.593 2.401-1.639 0-2.994-.36-4.02-1.105-1.027-.722-1.726-1.742-2.098-2.996l-.066-.19h17.37v-2.02zm-17.326-1.977c0-1.572 1.857-4.313 5.856-4.334 3.998 0 5.877 2.74 5.877 4.313l-11.733.021z" fill="#000"/></svg>