<svg width="160" height="48" fill="none" xmlns="http://www.w3.org/2000/svg"><path d="M97.234 18.679c.193.237.423.51.8 1.111 1.07 1.7 3.196 5.399 5.35 9.066 1.392 2.369 2.892 4.997 3.704 6.508 2.478-4.136 5.256-10.795 7.081-16.72.183-.594.47-.882.997-.882.281 0 .754.114 2.056.5.784.234 2.347.701 2.928.881.6.185.85.48.85.858 0 .368-.216.954-.521 1.759-2.434 6.431-5.811 13.42-9.773 19.33-1.511 2.255-3.187 2.91-5.981 2.91-2.949 0-4.267-.768-5.715-2.855-.984-1.417-2.007-2.974-3.393-5.068 2.117-3.463 3.021-7.657 3.021-11.788 0-2.641-.73-4.793-1.404-5.61z" fill="#F89F0E"/><path d="M98.638 24.289c0 4.132-.904 8.326-3.021 11.788l-6.978-10.653c-.862-1.436-1.094-2.044-1.094-2.855 0-2.39 4.338-4.954 7.266-4.954 1.045 0 1.713.248 2.423 1.063.675.818 1.404 2.97 1.404 5.61z" fill="#B70469"/><path d="M95.617 36.077c-3.12 4.987-8.466 7.92-15.737 7.92-5.503 0-10.487-1.648-13.234-4.087 3.464-2.829 5.83-7.183 5.83-12.494l.002 1.826c0 3.077.663 4.92 2.03 6.29 1.435 1.437 3.636 2.226 6.488 2.226 6.007 0 9.119-3.68 9.119-7.744 0-1.63-.494-2.957-1.475-4.591" fill="#837319"/><path d="M66.648 39.91c-2.796 2.52-7.527 4.088-12.065 4.088-4.544 0-9.326-1.22-12.124-3.948-2.154-2.1-3.387-4.766-3.387-9.433v-11.69c0-.577.21-.82.844-.82h9.01c.641 0 .858.251.858.817v12.932c0 2.067.457 3.466 1.435 4.475.937.965 2.51 1.542 4.284 1.542 1.818 0 3.47-.597 4.522-1.7 1.196-1.254 1.738-3.043 1.738-6.344v-1.02c0 4.276 1.553 8.27 4.884 11.1zM44.427 14.503C41.072 14.503 39 12.18 39 9.252 39 6.323 41.072 4 44.427 4c3.355 0 5.427 2.323 5.427 5.252 0 2.927-2.072 5.251-5.427 5.251z" fill="#4DC3C7"/><path d="M67.119 6.741c2.007 0 3.71.36 4.536 1.094.56.499.82 1.166.82 2.14v8.131h8.473c.641 0 .866.252.866.818v4.97c0 .566-.225.817-.866.817h-4.757c-1.483 0-2.713-.212-3.715-.63v3.335c0 5.309-2.365 9.667-5.826 12.493-3.333-2.83-4.887-6.831-4.887-11.107V9.976c0-.97.26-1.642.82-2.14.826-.736 2.499-1.095 4.536-1.095z" fill="#181210"/></svg>