<svg width="160" height="48" fill="none" xmlns="http://www.w3.org/2000/svg"><g clip-path="url(#clip0)"><path d="M115.23 18.414h-3.522v1.74c-1.205-1.373-2.966-2.106-4.819-2.106-4.171 0-7.23 3.388-7.23 8.15 0 4.578 3.06 7.874 7.137 7.874 1.947 0 3.429-.641 4.819-2.198v2.106c0 3.205-1.297 4.762-3.892 4.762-1.39 0-2.78-.642-3.429-1.74-.371-.641-.463-1.19-.556-2.472h-3.429c0 4.578 2.873 7.416 7.414 7.416 2.595 0 4.912-1.007 6.21-2.93 1.019-1.465 1.297-2.747 1.297-5.768V18.414zm-7.692 2.656c2.595 0 4.263 2.014 4.263 4.853 0 2.93-1.761 4.944-4.263 4.944-2.595 0-4.264-1.923-4.264-4.853 0-2.93 1.669-4.944 4.264-4.944z" fill="#C02428"/><path d="M46.832 18.414v15.2h3.522V25.83c0-3.205.834-4.578 2.873-4.578 1.576 0 2.317 1.282 2.317 4.029v8.424h3.522v-7.783c0-3.205.834-4.578 2.873-4.578 1.669 0 2.317 1.098 2.317 4.028v8.424h3.522v-9.614c0-4.12-1.76-6.226-5.19-6.226-1.854 0-3.43.824-4.541 2.197-.927-1.465-2.41-2.197-4.079-2.197-1.482 0-2.317.366-3.614 1.831v-1.374h-3.522zm34.2 0v1.74c-1.576-1.556-2.874-2.197-4.82-2.197-4.17 0-7.23 3.387-7.23 7.874 0 4.761 3.06 8.149 7.322 8.149 1.854 0 3.06-.549 4.727-2.014v1.556h3.522V18.415H81.03zM76.86 21.07c2.595 0 4.355 2.014 4.355 4.853 0 2.93-1.76 4.944-4.355 4.944-2.503 0-4.264-2.014-4.264-4.944 0-2.747 1.854-4.853 4.264-4.853zm14.087-2.656h-3.522v15.2h3.522v-15.2zM89.187 9.9a2.319 2.319 0 00-1.645.664 2.265 2.265 0 00-.672 1.625c0 1.282 1.02 2.29 2.317 2.29 1.297 0 2.317-1.008 2.317-2.29a2.245 2.245 0 00-.672-1.625 2.298 2.298 0 00-1.645-.664zm5.005-3.845h3.522v27.468h-3.522V6.054z" fill="#525357"/><path d="M120.884 18.414h-3.522v8.79c0 2.381.463 3.663 1.576 4.945 1.204 1.282 2.965 1.923 4.912 1.923 2.038 0 3.706-.641 5.004-1.923 1.205-1.282 1.576-2.564 1.576-4.944v-8.79h-3.522v8.697c0 2.564-.927 3.755-3.059 3.755-2.039 0-2.965-1.19-2.965-3.755v-8.698zm11.955 0v15.2h3.522v-7.325c0-3.754.834-5.128 3.244-5.128 2.224 0 2.874 1.008 2.874 3.938v8.515H146v-9.339c0-4.212-1.761-6.318-5.561-6.318-1.668 0-2.78.458-4.171 1.832v-1.375h-3.429zm-104.08 1.19c-2.966 0-5.468 2.382-5.468 5.403 0 3.022 2.41 5.402 5.469 5.402 2.965 0 5.467-2.38 5.467-5.402 0-3.022-2.502-5.402-5.467-5.402zm-8.526 5.312c0-4.579 3.8-8.333 8.434-8.333 4.634 0 8.434 3.754 8.434 8.332 0 .274 0 .641-.092.915-.093.825.555 1.466 1.39 1.466 1.39 0 1.575-1.74 1.575-2.38 0-6.136-5.097-11.172-11.307-11.172-6.209 0-11.307 5.036-11.307 11.171 0 6.134 5.098 11.17 11.307 11.17 3.337 0 6.303-1.373 8.342-3.662l2.317 1.923c-2.503 2.93-6.396 4.761-10.566 4.761a14.47 14.47 0 01-5.505-1.068 14.333 14.333 0 01-4.667-3.075 14.137 14.137 0 01-3.113-4.61 13.997 13.997 0 01-1.08-5.438c0-7.783 6.394-14.193 14.365-14.193 7.878 0 14.272 6.41 14.272 14.193 0 3.113-1.482 5.676-4.541 5.676-1.298 0-2.132-.64-2.595-1.281-1.483 2.38-4.17 3.937-7.23 3.937-4.633 0-8.433-3.663-8.433-8.332zm8.527-2.473a2.517 2.517 0 011.772.721 2.459 2.459 0 010 3.503 2.495 2.495 0 01-1.772.72 2.519 2.519 0 01-1.773-.72 2.46 2.46 0 010-3.503 2.494 2.494 0 011.773-.72z" fill="#C02428"/></g><defs><clipPath id="clip0"><path fill="#fff" transform="translate(13 5)" d="M0 0h133v38H0z"/></clipPath></defs></svg>