<svg width="160" height="48" fill="none" xmlns="http://www.w3.org/2000/svg"><path d="M68.56 15v18h-3.022V18.875h-.04L60.099 33h-2.014l-5.519-14.125h-.04V33h-2.78V15h4.351l4.995 13.333h.081L64.45 15h4.11zm2.497 1.375c0-.5.161-.917.524-1.25.362-.333.765-.5 1.248-.5.524 0 .967.167 1.29.5.322.333.523.75.523 1.25s-.16.917-.523 1.25c-.363.333-.766.5-1.29.5-.523 0-.926-.167-1.248-.5-.323-.375-.524-.792-.524-1.25zm3.263 3.708V33h-2.94V20.083h2.94zm8.903 10.709a3.3 3.3 0 001.45-.334 6.306 6.306 0 001.45-.833v2.833c-.483.292-1.007.5-1.611.625a9.597 9.597 0 01-1.974.209c-1.853 0-3.344-.584-4.472-1.792-1.168-1.208-1.732-2.75-1.732-4.583 0-2.084.604-3.792 1.773-5.125 1.168-1.334 2.82-2 4.995-2 .564 0 1.128.083 1.652.208a5.374 5.374 0 011.329.5v2.917c-.443-.334-.927-.625-1.37-.792-.483-.167-.966-.292-1.45-.292-1.168 0-2.095.375-2.82 1.167-.725.792-1.047 1.833-1.047 3.167 0 1.291.362 2.333 1.047 3.041.685.709 1.612 1.084 2.78 1.084zm11.24-10.917c.24 0 .442 0 .644.042.201.041.362.083.483.125v3.083a1.784 1.784 0 00-.685-.333c-.322-.084-.644-.167-1.087-.167-.726 0-1.33.333-1.813.958-.484.625-.766 1.584-.766 2.917V33H88.3V20.083h2.94v2.042h.04c.283-.708.686-1.25 1.21-1.667a3.464 3.464 0 011.973-.583zm1.288 6.875c0-2.125.605-3.833 1.732-5.083 1.169-1.25 2.78-1.875 4.835-1.875 1.933 0 3.464.583 4.552 1.791 1.087 1.209 1.651 2.834 1.651 4.875 0 2.084-.604 3.75-1.732 5-1.168 1.25-2.739 1.875-4.753 1.875-1.934 0-3.465-.583-4.593-1.75-1.128-1.208-1.692-2.833-1.692-4.833zm3.062-.125c0 1.333.282 2.375.886 3.083.604.709 1.45 1.084 2.538 1.084 1.047 0 1.893-.334 2.457-1.084.564-.708.846-1.75.846-3.166 0-1.375-.282-2.417-.846-3.167-.564-.708-1.41-1.083-2.417-1.083-1.087 0-1.893.375-2.497 1.125-.685.791-.967 1.833-.967 3.208zm14.099-3.125c0 .417.121.792.403 1.042.282.25.846.541 1.773.916 1.168.5 2.014 1.042 2.457 1.625.483.625.725 1.334.725 2.209 0 1.208-.443 2.166-1.37 2.916-.886.75-2.135 1.084-3.665 1.084-.524 0-1.088-.084-1.733-.209-.644-.125-1.168-.291-1.611-.5v-3a6.963 6.963 0 001.732.917c.605.208 1.168.333 1.692.333.645 0 1.168-.083 1.45-.291.323-.209.484-.5.484-.959 0-.416-.161-.75-.484-1.083-.322-.292-.966-.625-1.853-1-1.087-.458-1.853-1-2.296-1.583-.443-.584-.685-1.334-.685-2.25 0-1.167.443-2.125 1.33-2.875.886-.75 2.054-1.125 3.464-1.125.443 0 .927.041 1.45.166.524.125 1.007.25 1.37.375v2.959a8.57 8.57 0 00-1.37-.709 4.133 4.133 0 00-1.53-.291c-.564 0-1.008.125-1.29.333-.282.292-.443.583-.443 1zm6.607 3.25c0-2.125.604-3.833 1.732-5.083 1.168-1.25 2.78-1.875 4.834-1.875 1.934 0 3.465.583 4.552 1.791 1.088 1.209 1.652 2.834 1.652 4.875 0 2.084-.604 3.75-1.732 5-1.168 1.25-2.739 1.875-4.754 1.875-1.933 0-3.464-.583-4.592-1.75-1.088-1.208-1.692-2.833-1.692-4.833zm3.062-.125c0 1.333.282 2.375.886 3.083.604.709 1.45 1.084 2.538 1.084 1.047 0 1.893-.334 2.457-1.084.564-.708.846-1.75.846-3.166 0-1.375-.282-2.417-.846-3.167-.564-.708-1.41-1.083-2.417-1.083-1.088 0-1.893.375-2.498 1.125-.644.791-.966 1.833-.966 3.208zm19.497-4.042h-4.391V33h-2.981V22.583h-2.095v-2.5h2.095v-1.791c0-1.334.443-2.459 1.289-3.334.846-.875 1.934-1.291 3.263-1.291.363 0 .685.041.967.041.282 0 .524.084.725.167V16.5a4.81 4.81 0 00-.523-.208 2.597 2.597 0 00-.846-.125c-.605 0-1.088.208-1.41.583-.323.375-.484 1-.484 1.75v1.542h4.391v-2.917l2.941-.917v3.834H148v2.5h-2.981v6.041c0 .792.161 1.334.403 1.667.282.333.725.5 1.329.5.161 0 .363-.042.604-.125.242-.083.444-.167.605-.292v2.5c-.202.125-.484.209-.927.292a6.758 6.758 0 01-1.289.125c-1.249 0-2.175-.333-2.78-1-.604-.667-.926-1.708-.926-3.083l.04-6.584z" fill="#737373"/><path d="M25.777 9H12v14.25h13.777V9z" fill="#F25022"/><path d="M41.005 9H27.227v14.25h13.778V9z" fill="#7FBA00"/><path d="M25.777 24.75H12V39h13.777V24.75z" fill="#00A4EF"/><path d="M41.005 24.75H27.227V39h13.778V24.75z" fill="#FFB900"/></svg>