<svg width="160" height="48" fill="none" xmlns="http://www.w3.org/2000/svg"><path d="M106 4l-.012.011-1.018 1.826.079-.992c-.244.208-.488.411-.733.61l-.207 2.11c-.056.062-.116.13-.181.2l-.195-1.852a30.56 30.56 0 01-1.047.772l.264 2.084c-.198.19-.415.394-.653.61l-.102-2.356c-.329.222-.661.436-.997.643l.078 2.6c-.206.172-.423.349-.651.531l.052-2.818c-.438.257-.882.503-1.335.738l.168 2.941c-.205.153-.417.309-.637.467l.167-3.254a30.2 30.2 0 01-1.326.629l.17 3.32c-.287.197-.585.398-.895.602l.316-3.743c-.51.218-1.03.425-1.564.623l.028 3.9c-.225.14-.454.281-.69.424l.119-4.128a39 39 0 01-1.349.447l.122 4.338c-.236.137-.476.275-.722.413l.03-4.579c-.47.14-.95.273-1.44.401l.379 4.75c-.332.18-.672.363-1.02.546l.21-5.185c-.649.163-1.316.318-2.003.465l.882 5.191a92.09 92.09 0 01-1.222.611l.054-5.74a73.63 73.63 0 01-1.87.365l.878 5.828c-.39.185-.786.371-1.192.558l-.06-6.318a232.782 232.782 0 01-1.543.27l.848 6.39c-.374.169-.754.336-1.141.505l-.154-6.817c-.592.105-1.158.206-1.7.306l1.023 6.867c-.444.189-.896.378-1.358.566l-.06-7.36c-.64.117-1.247.231-1.824.344l.95 7.402c-.402.17-.8.34-1.193.513L80.6 13.73c-.562.11-1.095.218-1.603.325l.708 7.973c-.403.183-.801.367-1.194.553l.214-8.47a81.3 81.3 0 00-2.255.51l1.134 8.396c-.45.22-.894.442-1.33.665l-.06-8.997c-.631.156-1.22.313-1.778.472l.53 9.21c-.408.219-.81.439-1.205.66l.18-9.725c-.687.206-1.329.418-1.95.643l.695 9.693c-.47.272-.93.545-1.381.82l.44-10.422c-.454.169-.897.344-1.34.53-.279.117-.59.263-.928.433l.313 10.404c-.29.186-.575.372-.857.559l.156-10.764c-.664.35-1.409.773-2.191 1.24l.379 10.651c-.41.287-.809.573-1.2.86l.31-11.203c-.77.468-1.566.968-2.35 1.472l.358 11a69.75 69.75 0 00-1.063.843l.196-11.515c-.733.474-1.447.945-2.11 1.388l.332 11.446c-.404.346-.795.69-1.173 1.03l.19-12.04c-.982.66-1.809 1.229-2.35 1.603l.671 11.81c-2.14 2.029-3.804 3.853-5.088 5.284V44s2.117-3.194 6.105-7.202l10.283 3.813a28.1 28.1 0 011.09-1.565l-8.857-4.642.143-.128 9.785 3.416c.319-.382.666-.779 1.041-1.185l-8.066-4.56.266-.21 9.004 3.538c.378-.365.777-.732 1.197-1.096l-7.702-4.3.324-.225 8.554 3.56c.512-.396 1.05-.784 1.614-1.157l-7.648-4.048.288-.175 8.49 3.497c.482-.302.93-.572 1.355-.819l-7.48-4.035.467-.255 8.215 3.617c.497-.269.97-.513 1.439-.751l-7.615-3.949.356-.185 8.322 3.597c.35-.177.707-.359 1.079-.552l-7.38-4.07.29-.145 8.214 3.614c.318-.175.65-.361.998-.563L80.99 22.78l.245-.12 8.146 3.454c.279-.17.568-.35.87-.54l-7.057-3.868.284-.137 7.468 3.561c.253-.163.514-.334.784-.513l-6.465-3.917.256-.125 7.167 3.4c.209-.142.423-.289.642-.44l-6.136-3.78.177-.087 6.682 3.366.587-.413c.116-.082.23-.165.344-.248l-6.015-3.502.306-.155 6.544 3.022c.282-.223.556-.45.823-.678l-5.712-3.194.25-.13 6.195 2.67c.313-.288.614-.58.905-.874l-5.695-2.546c.143-.077.284-.155.426-.233l5.812 2.214c.274-.292.538-.587.792-.883l-5.043-2.211.47-.274 4.998 1.979c.286-.35.56-.699.82-1.047l-4.297-1.86c.081-.05.162-.102.242-.153l4.568 1.304c.262-.372.508-.741.742-1.107l-3.67-1.295.276-.196 3.953.581c.242-.409.466-.81.675-1.201l-2.844-.713 3.242-.06c.247-.496.466-.97.66-1.417l-2.244-.093c.11-.113.218-.226.324-.34l2.417-.36.365-1.148-1.553-.005.145-.21 1.674-.807.199-.824-.997.132 1.218-1.467L106 4z" fill="#231F20"/></svg>