<svg width="160" height="48" fill="none" xmlns="http://www.w3.org/2000/svg"><g clip-path="url(#clip0)"><path d="M17.645 33.68H11V12.405h11.492l13.184 15.883V12.405h6.645V33.68H31.06L17.646 17.525V33.68zm56.468-6.58c0 2.958-.556 3.978-1.475 4.956-1.41 1.455-3.46 1.893-7.413 1.893H53.88c-3.952 0-6.006-.438-7.414-1.893-.92-.978-1.475-1.998-1.475-4.955v-8.202c0-2.956.556-3.974 1.475-4.953 1.41-1.457 3.462-1.895 7.414-1.895h11.345c3.952 0 6.003.438 7.413 1.895.92.98 1.475 1.998 1.475 4.953v8.202zm-9.167 1.46c1.518 0 2.053-.085 2.417-.397.34-.29.49-.666.49-1.916v-6.494c0-1.25-.15-1.622-.49-1.914-.364-.314-.9-.396-2.417-.396H54.158c-1.518 0-2.053.082-2.415.396-.342.292-.492.664-.492 1.915v6.492c0 1.251.15 1.626.492 1.917.362.312.897.396 2.415.396h10.788zm18.823-16.155V33.68h-6.943V12.405h6.943zm11.73 0h9.167l-12.372 9.95 13.954 11.325h-9.809L83.77 22.584l11.73-10.18zm12.029 0h6.944V33.68h-6.944V12.405zm33.418 21.275l-2.054-3.706h-13.437l-2.03 3.704h-7.671l12.308-21.273h8.632L149 33.68h-8.054zm-13.077-8.327h8.633l-4.317-7.703-4.316 7.703z" fill="#1C4598"/></g><defs><clipPath id="clip0"><path fill="#fff" transform="translate(11 12)" d="M0 0h138v22H0z"/></clipPath></defs></svg>