<svg width="160" height="48" fill="none" xmlns="http://www.w3.org/2000/svg"><path d="M31 5h98v32.571H80V43H58.222v-5.429H31V5zm5.444 27.143h10.89V15.857h5.444v16.286h5.444V10.429H36.444v21.714zm27.223-21.714V37.57h10.889v-5.428h10.888V10.429H63.667zm10.889 5.428H80v10.857h-5.444V15.857zm16.333-5.428v21.714h10.889V15.857h5.444v16.286h5.445V15.857h5.444v16.286h5.445V10.429H90.889z" fill="#CB3837"/><path d="M36.444 32.143h10.89V15.857h5.444v16.286h5.444V10.429H36.444v21.714zM63.667 10.429V37.57h10.889v-5.428h10.888V10.429H63.667zM80 26.714h-5.444V15.857H80v10.857zM90.889 10.429v21.714h10.889V15.857h5.444v16.286h5.445V15.857h5.444v16.286h5.445V10.429H90.889z" fill="#fff"/></svg>