<svg width="160" height="48" fill="none" xmlns="http://www.w3.org/2000/svg"><path d="M45.303 24c0 9.118-7.557 16.51-16.882 16.51-9.324 0-16.884-7.392-16.884-16.51 0-9.118 7.56-16.51 16.884-16.51 9.325 0 16.882 7.392 16.882 16.51z" fill="#EE3023"/><path d="M28.555 33.206c-4.638.015-9.465-3.855-9.486-10.073-.016-4.11 2.255-8.069 5.152-10.416 2.83-2.287 6.704-3.758 10.215-3.77.453 0 .928.036 1.216.133-3.07.622-5.515 3.418-5.506 6.588 0 .106.01.218.022.27 5.14 1.225 7.472 4.258 7.488 8.453.012 4.198-3.375 8.796-9.101 8.815" fill="#fff"/><path d="M56.206 30.837l-5.162-12.045h3.372l3.22 7.998 3.12-7.998h3.22l-5.01 12.045h-2.76zM72.96 24.752c0-.5-.059-.976-.18-1.428a3.385 3.385 0 00-.537-1.165 2.692 2.692 0 00-.868-.776c-.341-.195-.742-.292-1.2-.292-.46 0-.863.097-1.201.291a2.661 2.661 0 00-.869.777 3.386 3.386 0 00-.536 1.165c-.121.452-.18.928-.18 1.428 0 .519.059 1.001.18 1.444.118.443.291.831.52 1.165.23.334.522.597.873.791.347.191.753.289 1.212.289.46 0 .86-.098 1.2-.288.342-.195.63-.458.87-.792a3.55 3.55 0 00.536-1.165c.121-.443.18-.925.18-1.444zm3.118.014a7.48 7.48 0 01-.37 2.314 6.313 6.313 0 01-1.1 2.035 5.397 5.397 0 01-1.84 1.45c-.742.367-1.607.549-2.594.549-.99 0-1.855-.182-2.593-.55a5.439 5.439 0 01-1.843-1.449 6.367 6.367 0 01-1.098-2.035 7.37 7.37 0 010-4.613c.249-.75.615-1.42 1.099-2.012a5.369 5.369 0 011.842-1.422c.738-.358 1.604-.54 2.593-.54.987 0 1.85.182 2.581.54a5.51 5.51 0 011.84 1.422 6.057 6.057 0 011.113 2.011c.245.753.37 1.517.37 2.3zM85.598 21.443c-.611-.234-1.18-.352-1.707-.352-.54 0-1.008.103-1.395.303-.391.2-.714.47-.968.813a3.679 3.679 0 00-.571 1.156 4.568 4.568 0 00-.192 1.316c0 .5.055.98.167 1.441.109.458.28.862.509 1.204.226.343.515.62.862.828.348.207.76.313 1.235.313.39 0 .788-.106 1.194-.313.406-.209.695-.458.866-.74v-5.969zm.254 9.394l-.127-.922c-.289.315-.67.594-1.148.834-.475.242-1.036.364-1.681.364-.847 0-1.598-.176-2.24-.525a4.985 4.985 0 01-1.632-1.398 6.342 6.342 0 01-1.008-2.026 8.406 8.406 0 01-.341-2.4c0-.782.118-1.55.354-2.299.239-.749.598-1.42 1.082-2.01a5.387 5.387 0 011.824-1.423c.73-.358 1.588-.54 2.572-.54.645 0 1.343.118 2.09.349v-4.672h3.168v16.668h-2.913zM97.686 25.189c-.341.018-.695.049-1.055.088-.36.043-.7.097-1.026.164-.69.133-1.164.36-1.43.685-.264.328-.397.68-.397 1.065 0 .397.148.719.45.962.3.24.722.36 1.271.36.413 0 .813-.082 1.198-.248a3.56 3.56 0 00.989-.625v-2.451zm.254 5.639l-.124-.901c-.344.37-.778.661-1.309.87-.53.21-1.11.316-1.743.316-.53 0-1.042-.088-1.526-.264a3.992 3.992 0 01-1.297-.75 3.665 3.665 0 01-.909-1.197c-.232-.477-.347-1.013-.347-1.614 0-.598.118-1.128.36-1.586a3.48 3.48 0 01.974-1.162c.41-.316.88-.573 1.411-.773a9.02 9.02 0 011.666-.453c.41-.081.86-.142 1.346-.185a86.44 86.44 0 001.22-.112v-.176c0-.667-.175-1.14-.528-1.425-.35-.282-.835-.425-1.449-.425-.36 0-.704.043-1.03.128a4.548 4.548 0 00-.871.309 7.827 7.827 0 00-.683.376 4.818 4.818 0 00-.474.337l-1.049-2.172c.137-.118.344-.258.627-.425.282-.166.62-.33 1.023-.488.4-.158.85-.291 1.353-.4a7.648 7.648 0 011.622-.164c.683 0 1.306.088 1.868.264a3.8 3.8 0 011.458.825c.406.373.726.846.958 1.422.23.573.344 1.268.344 2.084v7.74h-2.89zM110.621 16.918a5.005 5.005 0 00-.598-.213c-.301-.09-.695-.136-1.191-.136-.441 0-.813.13-1.111.388-.298.258-.447.68-.447 1.262v.573h2.659v2.5h-2.634v9.545h-3.17V21.29h-1.635v-2.499h1.635v-.65c0-.782.102-1.443.307-1.986.205-.54.49-.982.856-1.322a3.358 3.358 0 011.291-.752 5.288 5.288 0 011.613-.237c.766 0 1.399.07 1.901.212.503.143.797.237.881.288l-.357 2.573zM119.261 24.752c0-.5-.063-.976-.18-1.428a3.385 3.385 0 00-.537-1.165 2.687 2.687 0 00-.869-.776c-.341-.195-.741-.292-1.2-.292-.459 0-.862.097-1.201.291a2.704 2.704 0 00-.871.777 3.5 3.5 0 00-.537 1.165 5.633 5.633 0 00-.177 1.428c0 .519.059 1.001.177 1.444.121.443.295.831.524 1.165.23.334.521.597.869.791.35.191.757.289 1.216.289.459 0 .859-.098 1.2-.288.342-.195.63-.458.869-.792a3.55 3.55 0 00.537-1.165c.117-.443.18-.925.18-1.444zm3.117.014c0 .785-.124 1.556-.372 2.314a6.245 6.245 0 01-1.098 2.035 5.393 5.393 0 01-1.84 1.45c-.741.367-1.607.549-2.593.549-.99 0-1.855-.182-2.593-.55a5.434 5.434 0 01-1.843-1.449 6.361 6.361 0 01-1.098-2.035 7.393 7.393 0 010-4.614c.248-.749.614-1.42 1.098-2.01a5.365 5.365 0 011.843-1.423c.738-.358 1.603-.54 2.593-.54.986 0 1.849.182 2.581.54a5.505 5.505 0 011.839 1.422 5.983 5.983 0 011.111 2.011c.248.753.372 1.517.372 2.3zM132.214 30.837v-6.87c0-.916-.195-1.626-.586-2.127-.394-.497-.937-.749-1.638-.749-.493 0-.949.125-1.365.376a5.76 5.76 0 00-1.088.825v8.545h-3.167V18.792h2.887l.152.95a5.57 5.57 0 011.676-.923 5.617 5.617 0 011.876-.324c.649 0 1.244.094 1.79.285a3.514 3.514 0 011.405.913c.394.415.695.958.909 1.623.211.667.32 1.468.32 2.399v7.122h-3.171zM145.243 23.366a3.107 3.107 0 00-.27-1.086 2.305 2.305 0 00-.54-.749 2.157 2.157 0 00-.691-.428 2.216 2.216 0 00-.76-.136c-.549 0-1.071.2-1.567.6-.496.4-.788.998-.875 1.8h4.703zm-4.777 2.223c.068 1.017.391 1.75.974 2.2.58.448 1.334.676 2.255.676.428 0 .831-.04 1.207-.112a5.68 5.68 0 001.002-.289c.291-.115.539-.233.744-.348.205-.119.357-.228.462-.328l.844 2.527a6.024 6.024 0 01-1.56.737c-.391.124-.853.23-1.381.324-.527.091-1.107.137-1.737.137a7 7 0 01-2.289-.373 5.135 5.135 0 01-1.902-1.165c-.545-.525-.98-1.177-1.302-1.96-.326-.782-.487-1.716-.487-2.8 0-1.015.148-1.916.446-2.699.298-.782.708-1.44 1.226-1.974a5.433 5.433 0 011.814-1.226 5.795 5.795 0 012.212-.424c.785 0 1.508.127 2.174.376a4.46 4.46 0 011.725 1.162c.484.524.869 1.204 1.148 2.038.282.83.422 1.823.422 2.972v.55h-7.997z" fill="#EE3023"/></svg>