<svg width="160" height="48" fill="none" xmlns="http://www.w3.org/2000/svg"><path d="M122.454 41.396a18.01 18.01 0 0015.952-4.578c.057-.142.129-.407.129-.781 0-1.617-1.236-3.936-3.215-6.334-3.324 6.798-8.666 11.234-12.866 11.693zm6.885-17.297c-4.671-3.488-10.58-6.314-16.164-6.314-2.833 0-4.229 1.037-4.552 1.4.082-.324.179-.636.28-.945a17.724 17.724 0 00-.918 5.635c0 6.198 3.182 11.653 8.008 14.86.045.012.161.019.246.019 3.694 0 9.559-6.519 13.1-14.655zm-91.555.493c.106.97.444 1.807 1.023 2.469.911 1.042 2.1 1.606 4.193 1.606.993 0 2.037-.253 3.046-.623.519-.19.902-.386 1.414-.636.305-.15.68-.064.765.271l.729 2.049c.106.41-.022.517-.43.768-1.167.716-3.888 1.56-6.14 1.56-2.799 0-5.055-.807-6.65-2.286-1.631-1.51-2.534-3.738-2.534-6.506 0-3.21 1.445-5.595 3.313-7.12 1.566-1.278 3.693-1.853 5.375-1.853 2.281 0 4.127.655 5.5 1.869 1.427 1.257 2.283 3.114 2.494 5.42.035.378.053 1.01.053 1.412v.825c0 .487-.187.775-.607.775H37.784zm34.24-10.313c-5.293 0-8.806 3.908-8.806 8.883 0 5.26 3.56 8.876 8.806 8.876 5.145 0 8.789-3.779 8.789-8.88 0-5.101-3.644-8.88-8.789-8.88zM144 23.875c0-5.701-2.692-10.775-6.88-14.048.359.495 1.336 1.82 1.336 6.27 0 1.706-.138 3.36-.394 4.952 2.632 3.356 4.14 6.945 4.14 9.554 0 .54-.084 1.084-.15 1.355A17.682 17.682 0 00144 23.875zm-87.658 7.947h-2.637c-.564 0-.808-.28-.854-.88v-8.42c0-3.067.181-4.502 1.182-5.783 1.306-1.672 3.341-2.431 6.675-2.431.783 0 1.745.087 2.349.229.397.093.458.4.384.797l-.396 1.93c-.092.361-.191.464-.477.464-.044 0-.129-.008-.233-.02-.275-.034-1.061-.12-1.39-.12-1.657 0-2.446.41-3.035 1.037-.684.73-.708 1.808-.708 3.74v8.576c0 .565-.25.88-.86.88zm-35.72-17.285c.395 0 .6.16.796.61.897 2.077 2.124 4.056 3.058 5.156.592-.609 1.968-2.296 3.496-5.156.254-.49.484-.61.828-.61h2.837c.254 0 .56.122.395.61-1.125 3.319-3.7 6.225-5.12 7.73 1.552 1.458 4.301 4.91 5.593 8.291.117.305.058.653-.59.653h-3.388c-.352 0-.624-.034-.86-.609-.841-2.078-2.154-4.258-3.653-5.692-1.636 1.724-2.883 3.85-3.723 5.692-.205.452-.41.61-.858.61h-3.107c-.208 0-.419-.243-.283-.613.924-2.517 2.766-5.65 5.4-8.005-2.067-2.483-4.06-5.508-4.846-8.057-.118-.383.088-.61.375-.61h3.65zm65.328 0c.394 0 .6.16.796.61.898 2.077 2.125 4.056 3.058 5.156.592-.609 1.968-2.296 3.495-5.156.255-.49.485-.61.83-.61h2.836c.254 0 .56.122.394.61-1.124 3.319-3.698 6.225-5.117 7.73 1.548 1.458 4.298 4.91 5.591 8.291.117.305.059.653-.59.653h-3.387c-.352 0-.624-.034-.861-.609-.84-2.078-2.153-4.258-3.653-5.692-1.636 1.724-2.883 3.85-3.723 5.692-.205.452-.41.61-.857.61h-3.108c-.206 0-.419-.243-.283-.613.925-2.517 2.766-5.65 5.4-8.005-2.067-2.483-4.06-5.508-4.846-8.057-.118-.383.09-.61.375-.61h3.65zM72.027 28.79c-3.083 0-4.27-2.648-4.27-5.631 0-2.982 1.187-5.628 4.27-5.628 3.082 0 4.243 2.646 4.243 5.628 0 2.983-1.161 5.631-4.243 5.631zm-26.28-7.278v-.104c0-2.307-1.409-3.862-3.714-3.862-1.679 0-3.033.908-3.744 2.33a5.405 5.405 0 00-.51 1.636h7.968zm86.238-6.155c.234-1.442.363-2.882.363-4.296 0-3.39-1.005-4.13-1.321-4.348A18.125 18.125 0 00125.992 6a18.011 18.011 0 00-13.433 5.98c.675-.514 2.443-1.21 5.071-1.21 5.5 0 10.452 1.918 14.355 4.587z" fill="#DA2131"/><path d="M141.708 31.823c0-3.026-1.87-6.947-5.049-10.508.478-2.297.74-4.675.74-7.068 0-2.964-.947-4.79-1.291-5.16l-.012-.015c-.203-.135-.399-.252-.632-.406l.016.017c.283.276 1.275 2.105 1.275 4.895 0 2.459-.249 4.83-.694 7.083a29.569 29.569 0 00-.999-.994c.436-2.134.68-4.32.68-6.507 0-2.514-.84-4.651-1.22-5.03l-.009-.01a16.173 16.173 0 00-.639-.323l.006.007c.243.254 1.237 2.078 1.237 5.086 0 2.12-.225 4.211-.632 6.235a29.776 29.776 0 00-1.087-.93c.435-2.09.68-4.229.68-6.367 0-2.423-.722-4.042-1.077-4.423l-.002-.002c-.201-.085-.46-.188-.663-.263l.007.008c.518.505 1.138 2.202 1.138 4.434 0 2.101-.235 4.164-.643 6.162-4.311-3.365-9.897-5.815-16.092-5.815-3.218 0-4.516.73-5.091 1.135l-.015.01c-.132.17-.392.53-.564.776l.016-.013c.493-.445 2.198-1.262 5.183-1.262 6.3 0 11.994 2.59 16.36 6.09a33.16 33.16 0 01-.394 1.523c-4.328-3.559-10.109-6.323-16.865-6.323-3.123 0-4.483.751-5.043 1.198 0-.002-.027.044-.066.113l.056-.106c-.022.039-.041.08-.063.118a12.21 12.21 0 00-.322.602 17.717 17.717 0 00-.033.069c.414-.303 1.837-1.285 4.861-1.285 6.892 0 12.811 2.856 17.211 6.508-.157.5-.325.995-.501 1.484-4.542-3.781-10.623-6.782-17.282-6.782-3.131 0-4.519 1.078-4.89 1.374l-.004.003-.006.005c-.045.137-.099.265-.151.396-.031.08-.06.165-.091.242-.007.014-.012.03-.017.044l.002-.002c-.007.019-.012.038-.019.055l.022-.057c.354-.264 1.837-1.373 4.829-1.373 6.537 0 12.69 3.086 17.297 6.932-3.5 9.01-10.136 15.632-13.961 16.076h-.006c.048.028.092.051.138.077l.058.032.021.01.04.023c.105.056.211.11.327.17l.006-.002h.001c4.861-1.039 10.732-7.617 13.93-15.916.371.324.73.653 1.079.985-3.198 8.208-9.133 14.398-14.127 15.35h-.002l-.011.003c.231.102.422.183.621.262l.009-.002.005-.001c5.534-1.077 11.05-7.24 14.078-15.057.351.35.687.703 1.01 1.058-3.046 7.87-8.592 13.381-14.048 14.376l-.01.002-.023.005c.291.088.481.153.752.23l.022-.005.016-.003c5.661-.823 10.905-6.506 13.847-13.982 2.662 3.078 4.248 6.183 4.248 8.33 0 .218-.048.551-.152.768-.14.146-.28.294-.425.436.144-.14.283-.284.423-.43l-.006.014c.081-.084.159-.17.237-.255l.034-.036c-.007.009-.015.016-.023.024l.077-.082.055-.059.007-.011c.121-.158.169-.798.169-.895 0-2.223-1.6-5.457-4.332-8.634.176-.481.343-.966.499-1.46 2.898 3.414 4.531 6.926 4.531 9.213 0 .28-.043.723-.193.976.191-.238.346-.437.448-.578.22-.3.172-.925.172-1.111 0-2.297-1.681-5.921-4.682-9.42.15-.524.287-1.055.414-1.59 3.084 3.525 4.893 7.35 4.893 10.254 0 .184-.039.627-.19.987l-.006.016v.002l.01-.016.208-.323c.062-.097.119-.186.155-.248.01-.018.014-.041.024-.06a17.564 17.564 0 01.005-.014c.154-.333.17-.805.17-1.069zm-8.512-12.707c.371.313.729.634 1.08.958a33.421 33.421 0 01-.397 1.557 29.65 29.65 0 00-1.085-.984c.144-.507.28-1.017.402-1.531zm-1.168 3.916c.176-.49.345-.983.501-1.483a31 31 0 011.081.988c-.156.5-.322.995-.498 1.483-.35-.334-.711-.663-1.084-.988zm2.664 2.605c-.323-.355-.658-.71-1.008-1.06.176-.488.341-.983.496-1.482.349.35.681.705 1.002 1.062-.153.501-.316.995-.49 1.48zm.759-2.4a29.582 29.582 0 00-1.001-1.053c.146-.517.282-1.038.404-1.564.346.337.676.68.998 1.026a37.273 37.273 0 01-.401 1.59z" fill="#DA2131"/></svg>